<svg width="157" height="137" viewBox="0 0 157 137" fill="none" xmlns="http://www.w3.org/2000/svg">
<g opacity="0.8" clip-path="url(#clip0_2234_8808)">
<path d="M5.3356 59.2957C5.3356 60.8151 4.19226 61.9546 2.6678 61.9546C1.14334 61.9546 0 60.8151 0 59.2957C0 57.7763 1.14334 56.6367 2.6678 56.6367C4.19226 56.6367 5.3356 57.9029 5.3356 59.2957Z" fill="white"/>
<path d="M28.0753 59.2957C28.0753 60.8151 26.932 61.9546 25.4075 61.9546C23.8831 61.9546 22.7397 60.8151 22.7397 59.2957C22.7397 57.7763 23.8831 56.6367 25.4075 56.6367C26.805 56.6367 28.0753 57.9029 28.0753 59.2957Z" fill="white"/>
<path d="M50.6881 59.2957C50.6881 60.8151 49.5448 61.9546 48.0203 61.9546C46.4959 61.9546 45.3525 60.8151 45.3525 59.2957C45.3525 57.7763 46.4959 56.6367 48.0203 56.6367C49.5448 56.6367 50.6881 57.9029 50.6881 59.2957Z" fill="white"/>
<path d="M73.4279 59.2957C73.4279 60.8151 72.2845 61.9546 70.7601 61.9546C69.2356 61.9546 68.0923 60.8151 68.0923 59.2957C68.0923 57.7763 69.2356 56.6367 70.7601 56.6367C72.2845 56.6367 73.4279 57.9029 73.4279 59.2957Z" fill="white"/>
<path d="M96.1676 59.2957C96.1676 60.8151 95.0243 61.9546 93.4998 61.9546C91.9754 61.9546 90.832 60.8151 90.832 59.2957C90.832 57.7763 91.9754 56.6367 93.4998 56.6367C94.8972 56.6367 96.1676 57.9029 96.1676 59.2957Z" fill="white"/>
<path d="M118.908 59.2957C118.908 60.8151 117.765 61.9546 116.24 61.9546C114.716 61.9546 113.572 60.8151 113.572 59.2957C113.572 57.7763 114.716 56.6367 116.24 56.6367C117.765 56.6367 118.908 57.9029 118.908 59.2957Z" fill="white"/>
<path d="M141.52 59.2957C141.52 60.8151 140.377 61.9546 138.852 61.9546C137.328 61.9546 136.185 60.8151 136.185 59.2957C136.185 57.7763 137.328 56.6367 138.852 56.6367C140.377 56.6367 141.52 57.9029 141.52 59.2957Z" fill="white"/>
<path d="M5.3356 87.614C5.3356 89.1335 4.19226 90.273 2.6678 90.273C1.14334 90.273 0 89.1335 0 87.614C0 86.0946 1.14334 84.9551 2.6678 84.9551C4.19226 84.9551 5.3356 86.0946 5.3356 87.614Z" fill="white"/>
<path d="M28.0753 87.614C28.0753 89.1335 26.932 90.273 25.4075 90.273C23.8831 90.273 22.7397 89.1335 22.7397 87.614C22.7397 86.0946 23.8831 84.9551 25.4075 84.9551C26.805 84.9551 28.0753 86.0946 28.0753 87.614Z" fill="white"/>
<path d="M50.6881 87.614C50.6881 89.1335 49.5448 90.273 48.0203 90.273C46.4959 90.273 45.3525 89.1335 45.3525 87.614C45.3525 86.0946 46.4959 84.9551 48.0203 84.9551C49.5448 84.9551 50.6881 86.0946 50.6881 87.614Z" fill="white"/>
<path d="M73.4279 87.614C73.4279 89.1335 72.2845 90.273 70.7601 90.273C69.2356 90.273 68.0923 89.1335 68.0923 87.614C68.0923 86.0946 69.2356 84.9551 70.7601 84.9551C72.2845 84.9551 73.4279 86.0946 73.4279 87.614Z" fill="white"/>
<path d="M96.1676 87.614C96.1676 89.1335 95.0243 90.273 93.4998 90.273C91.9754 90.273 90.832 89.1335 90.832 87.614C90.832 86.0946 91.9754 84.9551 93.4998 84.9551C94.8972 84.9551 96.1676 86.0946 96.1676 87.614Z" fill="white"/>
<path d="M118.908 87.614C118.908 89.1335 117.765 90.273 116.24 90.273C114.716 90.273 113.572 89.1335 113.572 87.614C113.572 86.0946 114.716 84.9551 116.24 84.9551C117.765 84.9551 118.908 86.0946 118.908 87.614Z" fill="white"/>
<path d="M141.52 87.614C141.52 89.1335 140.377 90.273 138.852 90.273C137.328 90.273 136.185 89.1335 136.185 87.614C136.185 86.0946 137.328 84.9551 138.852 84.9551C140.377 84.9551 141.52 86.0946 141.52 87.614Z" fill="white"/>
<path d="M5.3356 2.65896C5.3356 4.17837 4.19226 5.31793 2.6678 5.31793C1.14334 5.31793 0 4.17837 0 2.65896C0 1.13956 1.14334 0 2.6678 0C4.19226 0 5.3356 1.13956 5.3356 2.65896Z" fill="white"/>
<path d="M28.0753 2.65896C28.0753 4.17837 26.932 5.31793 25.4075 5.31793C23.8831 5.31793 22.7397 4.17837 22.7397 2.65896C22.7397 1.13956 23.8831 0 25.4075 0C26.805 0 28.0753 1.13956 28.0753 2.65896Z" fill="white"/>
<path d="M50.6881 2.65896C50.6881 4.17837 49.5448 5.31793 48.0203 5.31793C46.4959 5.31793 45.3525 4.17837 45.3525 2.65896C45.3525 1.13956 46.6229 0 48.0203 0C49.5448 0 50.6881 1.13956 50.6881 2.65896Z" fill="white"/>
<path d="M73.4279 2.65896C73.4279 4.17837 72.2845 5.31793 70.7601 5.31793C69.2356 5.31793 68.0923 4.17837 68.0923 2.65896C68.0923 1.13956 69.3627 0 70.7601 0C72.1575 0 73.4279 1.13956 73.4279 2.65896Z" fill="white"/>
<path d="M96.1676 2.65896C96.1676 4.17837 95.0243 5.31793 93.4998 5.31793C91.9754 5.31793 90.832 4.17837 90.832 2.65896C90.832 1.13956 91.9754 0 93.4998 0C94.8972 0 96.1676 1.13956 96.1676 2.65896Z" fill="white"/>
<path d="M118.908 2.65896C118.908 4.17837 117.765 5.31793 116.24 5.31793C114.716 5.31793 113.572 4.17837 113.572 2.65896C113.572 1.13956 114.716 0 116.24 0C117.765 0 118.908 1.13956 118.908 2.65896Z" fill="white"/>
<path d="M141.52 2.65896C141.52 4.17837 140.377 5.31793 138.852 5.31793C137.328 5.31793 136.185 4.17837 136.185 2.65896C136.185 1.13956 137.328 0 138.852 0C140.377 0 141.52 1.13956 141.52 2.65896Z" fill="white"/>
<path d="M5.3356 30.9773C5.3356 32.4967 4.19226 33.6363 2.6678 33.6363C1.14334 33.6363 0 32.3701 0 30.9773C0 29.4579 1.14334 28.3184 2.6678 28.3184C4.19226 28.3184 5.3356 29.4579 5.3356 30.9773Z" fill="white"/>
<path d="M28.0753 30.9773C28.0753 32.4967 26.932 33.6363 25.4075 33.6363C23.8831 33.6363 22.7397 32.4967 22.7397 30.9773C22.7397 29.4579 23.8831 28.3184 25.4075 28.3184C26.805 28.3184 28.0753 29.4579 28.0753 30.9773Z" fill="white"/>
<path d="M50.6881 30.9773C50.6881 32.4967 49.5448 33.6363 48.0203 33.6363C46.4959 33.6363 45.3525 32.4967 45.3525 30.9773C45.3525 29.4579 46.4959 28.3184 48.0203 28.3184C49.5448 28.3184 50.6881 29.4579 50.6881 30.9773Z" fill="white"/>
<path d="M73.4279 30.9773C73.4279 32.4967 72.2845 33.6363 70.7601 33.6363C69.2356 33.6363 68.0923 32.4967 68.0923 30.9773C68.0923 29.4579 69.2356 28.3184 70.7601 28.3184C72.2845 28.3184 73.4279 29.4579 73.4279 30.9773Z" fill="white"/>
<path d="M96.1676 30.9773C96.1676 32.4967 95.0243 33.6363 93.4998 33.6363C91.9754 33.6363 90.832 32.4967 90.832 30.9773C90.832 29.4579 91.9754 28.3184 93.4998 28.3184C94.8972 28.3184 96.1676 29.4579 96.1676 30.9773Z" fill="white"/>
<path d="M118.908 30.9773C118.908 32.4967 117.765 33.6363 116.24 33.6363C114.716 33.6363 113.572 32.4967 113.572 30.9773C113.572 29.4579 114.716 28.3184 116.24 28.3184C117.765 28.3184 118.908 29.4579 118.908 30.9773Z" fill="white"/>
<path d="M141.52 30.9773C141.52 32.4967 140.377 33.6363 138.852 33.6363C137.328 33.6363 136.185 32.4967 136.185 30.9773C136.185 29.4579 137.328 28.3184 138.852 28.3184C140.377 28.3184 141.52 29.4579 141.52 30.9773Z" fill="white"/>
<path d="M5.3356 115.932C5.3356 117.452 4.19226 118.591 2.6678 118.591C1.14334 118.591 0 117.452 0 115.932C0 114.413 1.14334 113.273 2.6678 113.273C4.19226 113.273 5.3356 114.54 5.3356 115.932Z" fill="white"/>
<path d="M28.0753 115.932C28.0753 117.452 26.932 118.591 25.4075 118.591C23.8831 118.591 22.7397 117.452 22.7397 115.932C22.7397 114.413 23.8831 113.273 25.4075 113.273C26.805 113.273 28.0753 114.54 28.0753 115.932Z" fill="white"/>
<path d="M50.6881 115.932C50.6881 117.452 49.5448 118.591 48.0203 118.591C46.4959 118.591 45.3525 117.452 45.3525 115.932C45.3525 114.413 46.4959 113.273 48.0203 113.273C49.5448 113.273 50.6881 114.54 50.6881 115.932Z" fill="white"/>
<path d="M73.4279 115.932C73.4279 117.452 72.2845 118.591 70.7601 118.591C69.2356 118.591 68.0923 117.452 68.0923 115.932C68.0923 114.413 69.2356 113.273 70.7601 113.273C72.2845 113.273 73.4279 114.54 73.4279 115.932Z" fill="white"/>
<path d="M96.1676 115.932C96.1676 117.452 95.0243 118.591 93.4998 118.591C91.9754 118.591 90.832 117.452 90.832 115.932C90.832 114.413 91.9754 113.273 93.4998 113.273C94.8972 113.273 96.1676 114.54 96.1676 115.932Z" fill="white"/>
<path d="M118.908 115.932C118.908 117.452 117.765 118.591 116.24 118.591C114.716 118.591 113.572 117.452 113.572 115.932C113.572 114.413 114.716 113.273 116.24 113.273C117.765 113.273 118.908 114.54 118.908 115.932Z" fill="white"/>
<path d="M141.52 115.932C141.52 117.452 140.377 118.591 138.852 118.591C137.328 118.591 136.185 117.452 136.185 115.932C136.185 114.413 137.328 113.273 138.852 113.273C140.377 113.273 141.52 114.54 141.52 115.932Z" fill="white"/>
</g>
<defs>
<clipPath id="clip0_2234_8808">
<rect width="187" height="137" fill="white"/>
</clipPath>
</defs>
</svg>
