<svg width="288" height="287" viewBox="0 0 288 287" fill="none" xmlns="http://www.w3.org/2000/svg">
<path d="M143.598 0C64.2155 0 0 64.2155 0 143.598C0 222.784 64.2155 287.197 143.598 287.197C222.784 287.197 287.197 222.981 287.197 143.598C287 64.2155 222.784 0 143.598 0ZM143.598 277.939C69.337 277.939 9.25806 217.86 9.25806 143.598C9.25806 69.337 69.337 9.25806 143.598 9.25806C217.86 9.25806 277.939 69.337 277.939 143.598C277.939 217.663 217.663 277.939 143.598 277.939Z" fill="#FFCF2D"/>
<path d="M143.5 31C81.4378 31 31 79.6445 31 139.5C31 199.356 81.4378 248 143.5 248C205.562 248 256 199.546 256 139.69C256 79.6445 205.562 31 143.5 31ZM143.5 231.468C90.8949 231.468 48.141 190.235 48.141 139.5C48.141 88.7653 90.8949 47.5315 143.5 47.5315C196.105 47.5315 238.859 88.7653 238.859 139.5C238.859 190.235 196.105 231.468 143.5 231.468Z" fill="#FFCF2D"/>
</svg>
