<svg width="101" height="119" viewBox="0 0 101 119" fill="none" xmlns="http://www.w3.org/2000/svg">
<path d="M27.9785 24.8242C27.9785 24.6402 27.943 29.1587 27.9785 30.4388C28.0847 34.2604 29.5827 37.8084 29.5827 41.6678C29.5827 49.6575 25.4794 57.4755 17.5516 60.8731C14.7732 62.0638 4.09643 67.3343 12.1153 67.3343C16.8909 67.3343 22.8866 68.218 27.5329 67.156C30.5948 66.4562 33.0396 63.6619 32.791 68.1363C32.7045 69.6934 31.9889 71.4703 31.9889 73.3944C31.9889 76.3987 29.8263 79.7449 27.1765 81.1478C26.322 81.6002 20.5495 85.6646 23.6117 86.5395C24.7012 86.8508 28.7955 85.8351 28.1568 87.3862C27.4064 89.2086 26.1372 90.8229 25.6169 92.6442C25.0435 94.6511 29.8023 95.7143 31.1868 96.0308C32.4862 96.3278 40.9716 96.3214 35.5537 99.4173C33.5818 100.544 33.9623 105.945 35.2418 107.438C37.9149 110.557 40.3026 112.067 43.8418 114.033C47.4452 116.035 54.9265 117.063 59.2595 117.063C64.0705 117.063 67.8692 116.179 72.5383 115.281C86.5483 112.586 88.1342 99.2743 88.1342 87.0742C88.1342 72.1723 86.7179 57.2488 80.1135 43.673C74.6092 32.3587 66.6314 24.101 55.16 18.5859C45.8777 14.1232 21.5619 14.48 21.5619 28.8346C21.5619 34.0634 21.2786 33.3588 25.5723 32.132C28.8023 31.2092 28.4664 28.8949 30.3848 26.4284C31.566 24.9097 27.6814 26.1363 27.1765 26.4729C24.6267 28.1728 23.1453 30.2217 21.1163 32.444C19.477 34.2394 16.2027 40.354 16.3039 37.9248C16.4347 34.784 20.0255 31.9978 22.364 30.4388" stroke="black" stroke-width="3" stroke-linecap="round"/>
<path d="M27.9785 24.8242C23.2708 28.4455 15.9818 28.3317 11.8033 32.7559C11.5047 33.072 11.2241 33.46 11.2241 33.9144C11.2241 35.2877 13.4287 32.2672 14.4324 31.33C19.102 26.9693 24.5025 19.2833 30.3402 16.5361C30.5707 16.4277 25.5668 22.815 25.3495 23.0418C24.7486 23.6693 15.0928 35.4034 19.2448 30.2605C20.0355 29.2811 28.3321 17.8082 29.5827 18.8087C30.1257 19.2431 26.7082 22.8306 26.3744 23.2201" stroke="black" stroke-width="3" stroke-linecap="round"/>
<path d="M40.0097 24.0222C41.6964 27.1546 38.1667 30.2368 35.9993 32.0429" stroke="black" stroke-width="3" stroke-linecap="round"/>
<path d="M31.1868 19.2097C28.6453 23.0219 20.7233 26.1179 16.6604 28.2999C14.1772 29.6335 16.1054 29.5577 17.5516 28.8346" stroke="#2522A4" stroke-width="3" stroke-linecap="round"/>
<path d="M35.9993 17.6056C30.4511 24.0073 22.6086 27.7676 17.3288 34.6719C17.0379 35.0523 16.4418 35.8949 16.8832 36.4098C18.6121 38.4269 32.191 25.5569 33.3257 24.5569C35.302 22.8152 37.8401 20.5076 39.7423 18.4967C40.1919 18.0215 40.3372 17.0252 40.99 16.9817C42.3155 16.8934 42.0108 29.3199 41.9703 30.3051C41.9566 30.6387 42.2958 36.2293 40.4553 34.6719C37.3674 32.0591 35.1294 28.098 32.791 24.8242" stroke="#2522A4" stroke-width="3" stroke-linecap="round"/>
<path d="M51.2388 32.0429C56.4427 32.5633 61.4049 34.2909 66.5673 35.0284C69.5366 35.4526 56.717 24.6214 56.0512 24.0222" stroke="#2522A4" stroke-width="3" stroke-linecap="round"/>
<path d="M50.4367 20.0118C56.2872 24.1907 62.2294 28.5962 67.2803 33.6471" stroke="#2522A4" stroke-width="3" stroke-linecap="round"/>
<path d="M51.2387 20.8139C54.9809 20.8139 59.7881 20.0515 62.9134 22.5517C65.4044 24.5444 66.0709 27.4018 68.0823 29.6367C72.7539 34.8273 73.171 42.3364 77.7073 47.5497C78.0757 47.9732 84.2765 53.6464 81.6285 51.5601C72.3153 44.2224 65.4302 36.2167 54.5362 30.7952C53.7515 30.4047 38.4828 22.743 44.0201 27.8543C53.2028 36.3306 64.4887 41.8234 73.786 50.0451C77.3957 53.2371 81.3783 56.3759 84.0793 60.4275C84.3778 60.8752 78.6374 53.1277 77.7073 51.9166C70.6996 42.7914 63.5648 33.7613 56.3186 24.8242C55.6702 24.0246 53.8969 23.5861 54.1797 22.5962C54.3895 21.8619 55.6869 22.8784 56.4077 23.131C59.2449 24.1252 61.9347 25.295 64.6067 26.6957C74.3808 31.8196 85.8025 38.66 93.4369 46.7922C96.5979 50.1594 98.4973 53.9076 98.5612 58.5114C98.5778 59.7059 98.4881 70.6612 97.0462 70.097C94.3263 69.0327 91.1419 61.1595 90.184 59.3135C85.9666 51.1859 82.6621 42.4442 77.7073 34.7165C69.9086 22.5534 61.6384 19.4196 47.0501 19.2097C35.3529 19.0414 54.5045 18.145 56.4077 18.0511C62.338 17.7588 68.2929 17.5712 74.2316 17.6055C77.2962 17.6233 79.2071 17.5323 80.9156 20.2791C86.7122 29.5993 84.357 38.7184 84.1239 48.9756C83.9452 56.8372 81.6523 42.7639 81.0938 41.0886C78.5378 33.4205 74.1034 24.3706 67.5476 19.2097C67.2402 18.9677 64.9938 17.3571 65.4088 19.1206C66.664 24.4554 71.5495 29.888 75.0337 33.8699C76.7973 35.8855 82.1545 40.8477 81.8068 38.1922C81.2302 33.7894 78.4101 29.2343 76.5487 25.3589C75.2058 22.563 73.4287 19.046 72.1818 16.0905C71.8838 15.384 71.1016 13.5647 71.8254 13.818C74.6412 14.8035 78.165 19.3861 79.9352 21.3486C84.8487 26.7955 88.8796 32.8017 93.0358 38.816C94.7691 41.3242 95.1104 41.685 93.7933 38.415C91.5426 32.8268 89.7504 27.0983 87.5995 21.4822C84.6301 13.7286 92.175 37.4509 94.8182 45.3217C94.8483 45.4114 96.992 50.0028 95.041 47.4606C90.6854 41.7851 86.6543 35.8306 82.7871 29.8149C78.6012 23.3036 83.9829 37.45 83.5891 39.1725C82.8352 42.471 78.0334 35.287 75.4793 33.0678C68.8338 27.2939 62.2858 20.4404 54.4916 16.1796C49.0934 13.2286 42.21 14.1643 37.0687 17.2491C35.462 18.2131 35.1134 19.1273 37.4252 18.9423C44.4337 18.3817 51.3992 16.2027 58.4129 15.3776C62.3785 14.911 66.3308 14.6409 70.3103 14.3972C72.0775 14.289 69.9333 13.7054 69.33 13.5952C61.0783 12.0876 36.0834 9.40215 44.4657 9.71846C54.4196 10.0941 84.26 11.6678 74.3207 11.0107C68.7582 10.6429 63.1838 10.5072 57.6108 10.4314C54.2196 10.3853 48.0922 9.40126 44.5993 10.476C43.6964 10.7538 45.9696 11.8895 46.8719 12.1693C50.1489 13.1854 54.933 12.9024 57.9227 14.3972C60.6223 15.747 51.8933 14.1055 48.8771 13.9962C41.8004 13.7398 33.8881 12.7404 26.8645 14.0853C17.9638 15.7897 44.7607 17.6055 53.8232 17.6055C54.5868 17.6055 58.8599 17.5639 54.9818 16.8035C49.6174 15.7516 43.886 15.8516 38.4501 16.0905C38.2544 16.0991 31.9862 16.117 31.6324 17.2491C31.362 18.1144 42.136 16.526 42.5942 16.3579C43.5378 16.0115 49.4204 13.1574 45.6242 11.5009C39.4423 8.80328 29.2299 10.776 23.1215 12.6594C15.4332 15.03 9.7451 21.5849 21.3837 21.8833C24.6792 21.9678 30.3502 22.1406 32.9692 19.5216C36.484 16.0069 23.9568 15.4667 23.5226 15.4667C20.3909 15.4667 15.1701 15.4908 12.5609 17.7838C8.73978 21.1417 21.6342 21.3597 21.7402 21.3486C26.4345 20.8533 30.6179 19.1124 32.9692 14.8428C34.4305 12.1895 35.0801 7.70818 30.7412 8.06975C27.1791 8.3666 10.169 20.0189 17.3733 21.705C22.1162 22.8151 27.6401 21.4309 32.1226 19.9672C36.6197 18.4988 39.5957 16.6091 33.0584 15.2884C27.0421 14.073 20.7478 13.9782 14.7888 15.6449C13.4424 16.0215 0.546326 21.0063 6.41161 24.4678C11.0255 27.1907 18.6596 27.0258 23.7008 26.8294C25.4043 26.763 41.8821 25.0339 33.8604 19.789C29.4687 16.9174 -3.92382 13.5371 2.84682 23.3092C5.9271 27.755 28.5891 38.0142 27.221 26.874C26.8359 23.7383 21.9465 19.6427 19.6904 24.0222C17.8697 27.5564 32.9767 24.7941 31.276 23.7548C28.5812 22.108 13.7608 26.8904 15.5018 30.0823C16.4003 31.7295 22.4876 28.5133 20.4925 29.0574C18.6883 29.5495 13.7418 33.5297 13.8976 33.0232C14.5152 31.0163 15.1428 29.0119 15.7692 27.0077C16.5142 24.6236 13.1233 33.7524 13.0956 33.8253C11.685 37.533 10.3486 41.2376 9.26343 45.0544C9.10929 45.5965 8.74246 47.222 8.72872 46.6585C8.68227 44.7542 8.92386 42.853 9.08519 40.9549C9.4346 36.8442 9.58237 32.4026 10.6448 28.389C11.287 25.9629 10.5001 33.4531 9.84271 35.8751C9.24124 38.091 8.2481 39.9893 7.48104 42.1134C6.66055 44.3856 11.1409 38.92 12.65 37.0336C15.0927 33.9802 17.1909 30.7206 19.5122 27.5869C20.4718 26.2915 18.2534 34.4275 18.2199 34.5383C17.4754 37.001 15.8024 44.041 15.0562 41.5787C13.8761 37.6842 19.6439 30.0938 21.5619 27.1413C25.8992 20.4649 22.2205 33.6417 21.7402 35.5631C21.3767 37.0171 22.7762 32.7501 23.2552 31.33C23.6216 30.2435 26.6161 18.675 27.9785 18.675C28.3402 18.675 28.2769 19.3429 28.335 19.6999C28.659 21.69 28.6998 25.0796 28.7361 26.874C28.7988 29.979 26.9895 38.5511 29.0034 36.187C32.1358 32.5099 34.6886 28.0747 37.4252 24.1113C39.1846 21.5632 43.1115 13.997 43.4853 17.0708C43.8667 20.2064 42.8086 23.7882 42.0594 26.7849C41.1493 30.4255 40.7853 31.4051 42.104 26.9631C45.8815 14.2388 44.3936 32.3816 44.1983 36.3207C44.1286 37.7257 43.8288 40.0242 45.2232 37.4346C48.1292 32.0378 49.956 26.1221 52.8429 20.7247C54.0188 18.5262 53.1713 33.724 54.8926 33.8253C57.1752 33.9596 55.5175 29.2903 55.6502 27.0077C55.7024 26.1088 56.098 15.9745 56.0066 18.8532C55.803 25.2675 55.5388 31.6868 55.4274 38.103C55.3661 41.6295 54.559 49.3488 58.3683 42.6481C60.5963 38.729 62.305 34.5794 64.1611 30.4833C66.5643 25.1797 65.3475 33.1683 65.2305 34.2709C65.063 35.8502 63.3056 39.905 64.6067 38.9942C66.1319 37.9266 68.1137 34.9456 69.1518 33.5579C69.5842 32.9799 73.9181 25.4671 74.8554 25.76C75.9778 26.1107 74.5396 37.4316 74.7218 38.9497C75.2102 43.0204 77.7947 23.9019 77.7073 29.1911C77.6345 33.5914 77.3758 37.9596 76.9052 42.3362C76.7406 43.8667 75.3868 51.0291 78.242 45.4109C80.063 41.8276 81.062 38.0211 82.1632 34.1818C83.7182 28.7605 83.3129 35.2296 83.3218 36.6771C83.3432 40.1387 83.1503 43.6465 83.3664 47.1041C83.5713 50.3833 84.9422 40.7246 85.6835 37.5238C86.1461 35.5261 87.1935 29.5515 87.3322 31.5973C87.7095 37.1624 87.2994 42.8635 87.3322 48.4409C87.3936 58.8846 90.3755 45.3728 90.8078 42.4253C90.9533 41.4337 91.044 40.4348 91.1643 39.4398C91.3075 38.2552 91.3255 37.7228 91.3425 39.529C91.3966 45.2618 91.3022 50.9961 91.3425 56.729C91.4094 66.219 92.1446 50.9634 92.1446 48.7974C92.1446 48.2033 92.1446 47.6091 92.1446 47.015C92.1446 45.8267 92.1446 49.3915 92.1446 50.5798C92.1446 55.927 92.1446 61.2741 92.1446 66.6213C92.1446 66.6947 92.1446 70.0183 92.1446 67.156C92.1446 61.1096 92.1305 55.0568 91.7436 49.0202C91.6652 47.7978 91.3425 43.941 91.3425 48.3518C91.3425 53.6656 91.4596 59.0115 91.9664 64.3042C92.4419 69.2709 93.7114 55.6687 93.7488 54.9021C93.8017 53.8175 93.814 52.7292 93.927 51.6492C93.9848 51.0973 94.338 52.6995 94.3726 53.2534C94.688 58.2993 94.3787 63.5069 95.3529 68.4928C95.3924 68.6948 96.0553 71.6542 96.556 69.6514C97.8404 64.514 97.5576 58.735 97.7146 53.4762C97.8647 48.4493 97.7564 53.363 97.7592 53.699C97.792 57.6438 97.6232 61.8363 98.383 65.7301C98.7586 67.6553 98.5612 61.8097 98.5612 59.8482C98.5612 49.0053 98.5612 38.1625 98.5612 27.3196C98.5612 26.3393 98.5612 25.3589 98.5612 24.3786C98.5612 22.5665 98.5612 28.0028 98.5612 29.8149C98.5612 38.2776 98.6956 46.7522 98.5612 55.214C98.5189 57.8844 98.2172 49.8763 97.8037 47.2378C97.6067 45.9809 92.4587 26.1258 90.897 27.988C88.4862 30.8624 89.8082 39.05 89.7384 42.4699C89.6394 47.3206 89.4233 48.0088 87.5995 43.1829C85.4972 37.6197 83.4984 32.0961 80.6928 26.8294C76.9076 19.724 76.3105 22.2711 77.0389 28.5227C77.3487 31.1819 77.5211 35.5067 79.1332 37.9248C81.1156 40.8985 76.376 31.2482 74.2316 28.389C72.8165 26.5022 68.8169 20.6397 65.988 20.1009C65.3139 19.9725 69.8487 27.8301 70.3103 28.389C70.5773 28.7122 73.8517 31.4733 71.4689 29.1911C67.8417 25.7172 62.8962 23.2877 57.8336 22.9527C50.7465 22.4837 54.5998 31.6864 60.3289 31.6864C63.5576 31.6864 64.2863 29.772 62.3787 27.0522C58.7682 21.9045 51.4328 16.9121 44.8221 18.675C35.2101 21.2382 40.6776 36.5758 48.6543 37.301C52.4882 37.6495 57.2633 34.8801 57.5662 30.617C58.1959 21.7564 46.6625 16.8235 39.8314 15.4667C36.103 14.7261 28.8251 13.7958 25.706 17.0708C20.7572 22.2671 36.8425 25.8199 38.1827 26.161C39.9996 26.6235 51.3665 30.458 53.2885 26.6957C55.2734 22.8104 49.4731 18.567 46.5154 17.962C46.4076 17.94 40.0988 17.2366 40.0988 18.0957C40.0988 19.251 47.5184 19.8325 48.4315 19.789C53.5103 19.5471 46.4559 15.0072 44.733 17.3382C42.6633 20.1384 51.0405 17.1538 45.3569 20.1009C41.0999 22.3082 53.5049 22.227 54.7144 22.418C55.1941 22.4937 54.2476 23.2824 54.1351 23.7548C53.8987 24.7479 53.8654 26.4417 54.8481 27.0968C56.0034 27.867 54.2769 23.5263 52.3973 22.7745C50.3758 21.9659 47.531 22.8263 48.2087 25.5372C48.872 28.1906 51.3388 26.7509 49.3672 25.8045C44.7172 23.5725 36.8859 24.8242 31.9889 24.8242C27.5043 24.8242 23.2025 23.8938 18.7101 24.0222C17.1737 24.0661 13.0446 26.1738 14.0759 25.3144C15.0867 24.472 25.2029 19.2065 24.592 18.4076C22.5421 15.727 12.7599 17.9309 10.2437 18.8087C6.04597 20.273 7.16749 20.2213 7.12456 15.1993C7.07225 9.0792 6.43682 6.31257 2.22299 2.09874C1.46562 1.34137 4.39219 2.0172 5.43129 2.27698C9.83055 3.3768 15.3063 4.61929 18.621 7.98063C19.7835 9.15952 20.7301 11.1 20.4479 12.7931C20.2167 14.1804 17.158 17.1666 19.2448 15.2884C22.5227 12.3384 25.9898 9.58586 29.4936 6.9112C30.3644 6.24646 33.0844 4.77233 31.9889 4.77233" stroke="#2522A4" stroke-width="3" stroke-linecap="round"/>
<path d="M35.9625 51.4953C42.3647 49.3612 50.5328 55.0024 55.2031 47.997" stroke="#353541" stroke-width="3" stroke-linecap="round"/>
<path d="M34.2133 37.9394H49.0811" stroke="#353541" stroke-width="3" stroke-linecap="round"/>
<path d="M56.0777 50.1834H58.7014" stroke="#353541" stroke-width="3" stroke-linecap="round"/>
<path d="M27.2167 86.0409H26.3422" stroke="#D64E14" stroke-width="3" stroke-linecap="round"/>
<path d="M28.0913 93.0375C28.0913 93.7863 28.6205 95.0927 29.4761 95.1997C30.6254 95.3433 33.468 96.1628 32.9501 95.1268C32.6465 94.5197 27.7794 93.9627 26.8038 93.4748C25.6733 92.9096 25.9769 93.0071 27.1682 93.1347C29.2313 93.3557 31.2753 93.7058 33.3388 93.9121" stroke="#D64E14" stroke-width="3" stroke-linecap="round"/>
<path d="M24.593 62.8647C25.0286 63.5664 28.3442 69.1693 26.7309 69.3997C25.762 69.5381 24.6998 69.424 23.7184 69.424" stroke="#343130" stroke-width="3" stroke-linecap="round"/>
</svg>
