<svg width="101" height="119" viewBox="0 0 101 119" fill="none" xmlns="http://www.w3.org/2000/svg">
<path d="M28.2913 25.0737C28.2913 24.8896 28.2558 29.4082 28.2913 30.6882C28.3975 34.5098 29.8955 38.0578 29.8955 41.9173C29.8955 49.907 25.7922 57.7249 17.8643 61.1225C15.086 62.3133 4.40921 67.5837 12.428 67.5837C17.2037 67.5837 23.1994 68.4675 27.8457 67.4055C30.9076 66.7056 33.3524 63.9113 33.1038 68.3858C33.0173 69.9429 32.3017 71.7198 32.3017 73.6438C32.3017 76.6482 30.1391 79.9944 27.4892 81.3972C26.6348 81.8496 20.8622 85.914 23.9245 86.789C25.014 87.1003 29.1082 86.0845 28.4696 87.6356C27.7191 89.4581 26.45 91.0724 25.9297 92.8937C25.3563 94.9005 30.1151 95.9637 31.4996 96.2802C32.799 96.5772 41.2843 96.5708 35.8665 99.6667C33.8946 100.794 34.275 106.195 35.5546 107.688C38.2277 110.806 40.6154 112.316 44.1546 114.282C47.758 116.284 55.2392 117.312 59.5723 117.312C64.3833 117.312 68.1819 116.428 72.8511 115.53C86.861 112.836 88.447 99.5237 88.447 87.3237C88.447 72.4218 87.0307 57.4983 80.4263 43.9225C74.922 32.6081 66.9442 24.3504 55.4728 18.8353C46.1905 14.3727 21.8747 14.7294 21.8747 29.084C21.8747 34.3129 21.5914 33.6083 25.8851 32.3815C29.1151 31.4586 28.7791 29.1443 30.6975 26.6778C31.8787 25.1592 27.9942 26.3858 27.4892 26.7224C24.9395 28.4222 23.4581 30.4712 21.4291 32.6934C19.7898 34.4888 16.5154 40.6034 16.6167 38.1742C16.7475 35.0334 20.3383 32.2472 22.6768 30.6882" stroke="black" stroke-width="3" stroke-linecap="round"/>
<path d="M28.2913 25.0737C23.5836 28.695 16.2945 28.5811 12.1161 33.0053C11.8175 33.3215 11.5368 33.7094 11.5368 34.1639C11.5368 35.5371 13.7415 32.5167 14.7451 31.5794C19.4148 27.2188 24.8152 19.5327 30.653 16.7855C30.8834 16.6771 25.8796 23.0644 25.6623 23.2913C25.0614 23.9187 15.4056 35.6528 19.5576 30.51C20.3483 29.5306 28.6449 18.0576 29.8955 19.0581C30.4385 19.4925 27.021 23.08 26.6872 23.4695" stroke="black" stroke-width="3" stroke-linecap="round"/>
<path d="M40.3225 24.2716C42.0091 27.404 38.4795 30.4862 36.3121 32.2924" stroke="black" stroke-width="3" stroke-linecap="round"/>
<path d="M31.4996 19.4591C28.9581 23.2714 21.0361 26.3674 16.9731 28.5493C14.4899 29.8829 16.4182 29.8071 17.8643 29.084" stroke="#2522A4" stroke-width="3" stroke-linecap="round"/>
<path d="M36.3121 17.855C30.7639 24.2567 22.9213 28.017 17.6415 34.9214C17.3507 35.3018 16.7546 36.1444 17.1959 36.6592C18.9249 38.6764 32.5038 25.8063 33.6385 24.8063C35.6148 23.0647 38.1529 20.7571 40.0551 18.7462C40.5047 18.2709 40.65 17.2747 41.3028 17.2312C42.6282 17.1428 42.3236 29.5694 42.2831 30.5545C42.2694 30.8881 42.6085 36.4787 40.7681 34.9214C37.6801 32.3085 35.4422 28.3475 33.1038 25.0737" stroke="#2522A4" stroke-width="3" stroke-linecap="round"/>
<path d="M51.5515 32.2924C56.7555 32.8127 61.7177 34.5404 66.8801 35.2779C69.8494 35.702 57.0298 24.8708 56.364 24.2716" stroke="#2522A4" stroke-width="3" stroke-linecap="round"/>
<path d="M50.7495 20.2612C56.6 24.4402 62.5422 28.8457 67.593 33.8965" stroke="#2522A4" stroke-width="3" stroke-linecap="round"/>
<path d="M51.5515 21.0633C55.2937 21.0633 60.1009 20.3009 63.2262 22.8011C65.7171 24.7939 66.3837 27.6512 68.3951 29.8861C73.0666 35.0767 73.4838 42.5858 78.02 47.7992C78.3885 48.2226 84.5893 53.8959 81.9413 51.8095C72.6281 44.4718 65.743 36.4661 54.8489 31.0447C54.0643 30.6542 38.7956 22.9924 44.3328 28.1037C53.5155 36.5801 64.8014 42.0729 74.0988 50.2945C77.7085 53.4865 81.691 56.6254 84.3921 60.6769C84.6906 61.1246 78.9501 53.3772 78.02 52.166C71.0123 43.0409 63.8776 34.0107 56.6313 25.0737C55.983 24.274 54.2096 23.8356 54.4925 22.8457C54.7023 22.1113 55.9997 23.1278 56.7205 23.3804C59.5577 24.3746 62.2474 25.5444 64.9195 26.9452C74.6936 32.0691 86.1153 38.9094 93.7496 47.0416C96.9107 50.4089 98.8101 54.157 98.874 58.7609C98.8906 59.9554 98.8009 70.9106 97.359 70.3464C94.6391 69.2821 91.4547 61.4089 90.4968 59.5629C86.2793 51.4353 82.9749 42.6937 78.02 34.9659C70.2214 22.8029 61.9512 19.669 47.3629 19.4591C35.6656 19.2908 54.8172 18.3944 56.7205 18.3006C62.6508 18.0082 68.6057 17.8207 74.5444 17.855C77.609 17.8727 79.5199 17.7817 81.2283 20.5286C87.025 29.8487 84.6698 38.9679 84.4366 49.2251C84.258 57.0867 81.965 43.0133 81.4066 41.338C78.8506 33.67 74.4161 24.62 67.8604 19.4591C67.553 19.2171 65.3066 17.6065 65.7215 19.37C66.9768 24.7049 71.8623 30.1374 75.3465 34.1193C77.1101 36.1349 82.4673 41.0972 82.1195 38.4416C81.543 34.0389 78.7229 29.4838 76.8615 25.6084C75.5185 22.8124 73.7415 19.2954 72.4946 16.3399C72.1966 15.6335 71.4144 13.8141 72.1381 14.0674C74.954 15.0529 78.4778 19.6356 80.248 21.598C85.1615 27.045 89.1924 33.0512 93.3486 39.0654C95.0819 41.5736 95.4232 41.9344 94.1061 38.6644C91.8553 33.0763 90.0631 27.3478 87.9123 21.7317C84.9428 13.978 92.4878 37.7003 95.131 45.5712C95.1611 45.6609 97.3048 50.2522 95.3538 47.71C90.9982 42.0346 86.9671 36.08 83.0999 30.0644C78.914 23.5531 84.2956 37.6994 83.9019 39.4219C83.148 42.7204 78.3462 35.5364 75.792 33.3172C69.1466 27.5433 62.5986 20.6899 54.8044 16.4291C49.4062 13.478 42.5227 14.4138 37.3815 17.4985C35.7748 18.4625 35.4262 19.3767 37.738 19.1918C44.7465 18.6311 51.712 16.4521 58.7257 15.627C62.6913 15.1604 66.6436 14.8903 70.6231 14.6467C72.3903 14.5385 70.2461 13.9548 69.6428 13.8446C61.3911 12.3371 36.3962 9.65159 44.7784 9.9679C54.7324 10.3435 84.5728 11.9173 74.6335 11.2601C69.071 10.8924 63.4966 10.7567 57.9236 10.6809C54.5323 10.6347 48.405 9.6507 44.9121 10.7254C44.0092 11.0032 46.2824 12.1389 47.1847 12.4187C50.4616 13.4348 55.2458 13.1518 58.2355 14.6467C60.935 15.9964 52.2061 14.3549 49.1899 14.2456C42.1132 13.9892 34.2009 12.9898 27.1773 14.3348C18.2765 16.0392 45.0735 17.855 54.136 17.855C54.8996 17.855 59.1727 17.8133 55.2945 17.0529C49.9302 16.0011 44.1987 16.101 38.7629 16.3399C38.5672 16.3485 32.299 16.3664 31.9452 17.4985C31.6748 18.3638 42.4488 16.7755 42.9069 16.6073C43.8506 16.2609 49.7331 13.4068 45.937 11.7503C39.755 9.05272 29.5426 11.0254 23.4343 12.9088C15.746 15.2794 10.0579 21.8343 21.6965 22.1327C24.992 22.2172 30.663 22.3901 33.282 19.7711C36.7967 16.2563 24.2696 15.7161 23.8353 15.7161C20.7037 15.7161 15.4829 15.7403 12.8736 18.0332C9.05256 21.3911 21.947 21.6092 22.0529 21.598C26.7473 21.1027 30.9306 19.3619 33.282 15.0923C34.7433 12.4389 35.3928 7.95762 31.054 8.31919C27.4919 8.61604 10.4818 20.2684 17.6861 21.9545C22.429 23.0645 27.9529 21.6803 32.4354 20.2167C36.9325 18.7482 39.9085 16.8585 33.3711 15.5379C27.3548 14.3225 21.0606 14.2277 15.1016 15.8944C13.7551 16.271 0.859105 21.2557 6.72439 24.7172C11.3383 27.4401 18.9724 27.2753 24.0136 27.0789C25.7171 27.0125 42.1949 25.2833 34.1732 20.0384C29.7814 17.1669 -3.61104 13.7866 3.1596 23.5586C6.23988 28.0044 28.9019 38.2637 27.5338 27.1234C27.1487 23.9878 22.2593 19.8921 20.0032 24.2716C18.1825 27.8059 33.2894 25.0435 31.5887 24.0042C28.894 22.3575 14.0735 27.1398 15.8146 30.3317C16.7131 31.979 22.8004 28.7627 20.8053 29.3068C19.001 29.7989 14.0546 33.7792 14.2104 33.2727C14.828 31.2657 15.4556 29.2614 16.0819 27.2571C16.827 24.8731 13.4361 34.0018 13.4084 34.0747C11.9978 37.7825 10.6614 41.487 9.57621 45.3038C9.42207 45.846 9.05524 47.4714 9.04149 46.908C8.99505 45.0036 9.23664 43.1024 9.39797 41.2043C9.74738 37.0936 9.89514 32.652 10.9576 28.6384C11.5998 26.2124 10.8129 33.7025 10.1555 36.1245C9.55402 38.3404 8.56087 40.2387 7.79382 42.3629C6.97333 44.635 11.4537 39.1694 12.9628 37.283C15.4055 34.2296 17.5037 30.9701 19.825 27.8364C20.7846 26.5409 18.5662 34.677 18.5327 34.7877C17.7882 37.2505 16.1151 44.2904 15.369 41.8281C14.1888 37.9336 19.9567 30.3432 21.8747 27.3908C26.212 20.7143 22.5333 33.8912 22.0529 35.8126C21.6895 37.2665 23.089 32.9995 23.568 31.5794C23.9344 30.493 26.9289 18.9244 28.2913 18.9244C28.653 18.9244 28.5897 19.5923 28.6478 19.9493C28.9718 21.9394 29.0126 25.329 29.0488 27.1234C29.1116 30.2284 27.3023 38.8005 29.3162 36.4364C32.4485 32.7593 35.0014 28.3241 37.738 24.3607C39.4974 21.8126 43.4243 14.2464 43.7981 17.3203C44.1795 20.4558 43.1214 24.0377 42.3722 27.0343C41.4621 30.6749 41.0981 31.6545 42.4168 27.2125C46.1943 14.4882 44.7064 32.631 44.5111 36.5701C44.4414 37.9751 44.1416 40.2736 45.536 37.6841C48.442 32.2872 50.2687 26.3715 53.1557 20.9742C54.3316 18.7757 53.484 33.9735 55.2054 34.0747C57.488 34.209 55.8302 29.5398 55.9629 27.2571C56.0152 26.3582 56.4108 16.224 56.3194 19.1027C56.1158 25.5169 55.8515 31.9362 55.7401 38.3525C55.6789 41.8789 54.8718 49.5983 58.6811 42.8976C60.9091 38.9784 62.6178 34.8288 64.4739 30.7328C66.8771 25.4291 65.6602 33.4177 65.5433 34.5203C65.3758 36.0996 63.6184 40.1544 64.9195 39.2437C66.4447 38.176 68.4265 35.195 69.4646 33.8074C69.897 33.2294 74.2309 25.7165 75.1682 26.0094C76.2906 26.3602 74.8524 37.681 75.0345 39.1991C75.523 43.2698 78.1075 24.1513 78.02 29.4405C77.9473 33.8408 77.6886 38.209 77.218 42.5857C77.0534 44.1162 75.6996 51.2786 78.5547 45.6603C80.3758 42.077 81.3748 38.2705 82.476 34.4312C84.0309 29.01 83.6256 35.479 83.6346 36.9266C83.6559 40.3881 83.463 43.896 83.6791 47.3536C83.8841 50.6327 85.255 40.974 85.9962 37.7732C86.4588 35.7756 87.5063 29.8009 87.645 31.8468C88.0222 37.4118 87.6121 43.1129 87.645 48.6903C87.7064 59.1341 90.6883 45.6223 91.1206 42.6748C91.2661 41.6831 91.3568 40.6843 91.4771 39.6893C91.6203 38.5046 91.6383 37.9722 91.6553 39.7784C91.7094 45.5112 91.615 51.2455 91.6553 56.9785C91.7222 66.4684 92.4574 51.2128 92.4574 49.0468C92.4574 48.4527 92.4574 47.8586 92.4574 47.2644C92.4574 46.0762 92.4574 49.641 92.4574 50.8292C92.4574 56.1764 92.4574 61.5236 92.4574 66.8707C92.4574 66.9441 92.4574 70.2678 92.4574 67.4055C92.4574 61.3591 92.4433 55.3062 92.0564 49.2696C91.978 48.0473 91.6553 44.1904 91.6553 48.6012C91.6553 53.915 91.7724 59.261 92.2792 64.5536C92.7547 69.5203 94.0242 55.9181 94.0616 55.1515C94.1145 54.0669 94.1268 52.9787 94.2398 51.8987C94.2976 51.3467 94.6508 52.9489 94.6854 53.5028C95.0008 58.5488 94.6915 63.7564 95.6657 68.7422C95.7052 68.9442 96.3681 71.9036 96.8688 69.9008C98.1532 64.7634 97.8704 58.9844 98.0274 53.7256C98.1774 48.6987 98.0691 53.6124 98.0719 53.9484C98.1048 57.8933 97.936 62.0857 98.6958 65.9795C99.0714 67.9048 98.874 62.0592 98.874 60.0977C98.874 49.2548 98.874 38.4119 98.874 27.569C98.874 26.5887 98.874 25.6084 98.874 24.6281C98.874 22.816 98.874 28.2523 98.874 30.0644C98.874 38.5271 99.0083 47.0017 98.874 55.4634C98.8316 58.1338 98.53 50.1257 98.1165 47.4872C97.9195 46.2303 92.7715 26.3753 91.2097 28.2374C88.7989 31.1118 90.121 39.2994 90.0512 42.7193C89.9522 47.57 89.7361 48.2582 87.9123 43.4323C85.8099 37.8691 83.8112 32.3455 81.0055 27.0789C77.2204 19.9734 76.6233 22.5205 77.3516 28.7721C77.6614 31.4313 77.8339 35.7561 79.4459 38.1742C81.4284 41.1479 76.6887 31.4976 74.5444 28.6384C73.1292 26.7516 69.1297 20.8892 66.3008 20.3503C65.6267 20.2219 70.1614 28.0796 70.6231 28.6384C70.8901 28.9617 74.1645 31.7227 71.7817 29.4405C68.1545 25.9666 63.2089 23.5372 58.1464 23.2022C51.0593 22.7332 54.9126 31.9359 60.6417 31.9359C63.8703 31.9359 64.5991 30.0214 62.6915 27.3017C59.0809 22.154 51.7456 17.1616 45.1349 18.9244C35.5229 21.4876 40.9904 36.8253 48.9671 37.5504C52.8009 37.8989 57.5761 35.1295 57.879 30.8664C58.5087 22.0058 46.9753 17.073 40.1442 15.7161C36.4158 14.9755 29.1379 14.0452 26.0188 17.3203C21.0699 22.5165 37.1552 26.0693 38.4955 26.4105C40.3124 26.8729 51.6793 30.7074 53.6013 26.9452C55.5862 23.0599 49.7858 18.8164 46.8282 18.2115C46.7204 18.1894 40.4116 17.4861 40.4116 18.3451C40.4116 19.5005 47.8312 20.0819 48.7443 20.0384C53.823 19.7966 46.7687 15.2566 45.0458 17.5876C42.9761 20.3878 51.3533 17.4032 45.6696 20.3503C41.4127 22.5576 53.8177 22.4765 55.0272 22.6674C55.5069 22.7432 54.5604 23.5318 54.4479 24.0042C54.2115 24.9973 54.1782 26.6911 55.1609 27.3462C56.3162 28.1164 54.5896 23.7757 52.7101 23.0239C50.6885 22.2153 47.8437 23.0757 48.5215 25.7866C49.1848 28.4401 51.6516 27.0003 49.68 26.054C45.03 23.822 37.1987 25.0737 32.3017 25.0737C27.8171 25.0737 23.5152 24.1432 19.0229 24.2716C17.4865 24.3155 13.3574 26.4232 14.3887 25.5638C15.3995 24.7215 25.5157 19.456 24.9048 18.6571C22.8549 15.9765 13.0727 18.1804 10.5565 19.0581C6.35875 20.5224 7.48026 20.4707 7.43734 15.4488C7.38503 9.32863 6.7496 6.56201 2.53577 2.34818C1.7784 1.59081 4.70497 2.26664 5.74407 2.52642C10.1433 3.62623 15.6191 4.86873 18.9338 8.23007C20.0963 9.40896 21.0429 11.3494 20.7607 13.0425C20.5295 14.4298 17.4708 17.416 19.5576 15.5379C22.8355 12.5878 26.3025 9.8353 29.8064 7.16063C30.6772 6.4959 33.3972 5.02176 32.3017 5.02176" stroke="#2522A4" stroke-width="3" stroke-linecap="round"/>
<path d="M36.2753 51.7447C42.6775 49.6106 50.8456 55.2518 55.5159 48.2464" stroke="#353541" stroke-width="3" stroke-linecap="round"/>
<path d="M34.5261 38.1888H49.3939" stroke="#353541" stroke-width="3" stroke-linecap="round"/>
<path d="M56.3904 50.4329H59.0142" stroke="#353541" stroke-width="3" stroke-linecap="round"/>
<path d="M27.5295 86.2904H26.655" stroke="#D64E14" stroke-width="3" stroke-linecap="round"/>
<path d="M28.4041 93.287C28.4041 94.0357 28.9333 95.3422 29.7888 95.4491C30.9381 95.5928 33.7808 96.4122 33.2628 95.3762C32.9593 94.7691 28.0922 94.2121 27.1165 93.7243C25.9861 93.159 26.2897 93.2565 27.4809 93.3841C29.544 93.6052 31.5881 93.9552 33.6515 94.1615" stroke="#D64E14" stroke-width="3" stroke-linecap="round"/>
<path d="M24.9058 63.1142C25.3413 63.8159 28.6569 69.4187 27.0436 69.6492C26.0748 69.7876 25.0126 69.6735 24.0312 69.6735" stroke="#343130" stroke-width="3" stroke-linecap="round"/>
<path d="M55.2199 47.3033C55.2199 45.2798 53.2789 45.0918 51.4784 45.0584C48.4969 45.0032 45.5085 45.0584 42.5266 45.0584C40.8851 45.0584 39.8633 46.2149 38.8821 47.4142C37.9717 48.5269 36.7619 49.2462 36.7619 50.7954" stroke="#47443B" stroke-width="3" stroke-linecap="round"/>
<path d="M56.7165 47.8022C57.7004 46.7287 58.5763 45.7156 59.7096 44.809" stroke="#47443B" stroke-width="3" stroke-linecap="round"/>
<path d="M57.7142 45.8067C57.8801 44.6455 58.7119 43.7799 58.7119 42.5641" stroke="#47443B" stroke-width="3" stroke-linecap="round"/>
<path d="M47.2113 46.4244C47.0232 46.4244 45.6201 46.2695 45.4742 46.4926C45.1955 46.9187 45.2631 47.7012 45.2698 48.1729C45.2771 48.6819 45.5735 48.7947 45.9056 49.1039C46.3713 49.5374 46.8918 49.9788 47.5746 49.8532C48.3318 49.714 48.3468 49.2714 48.3353 48.627C48.3221 47.887 47.9474 46.9354 47.1091 46.9354" stroke="#C9511E" stroke-width="3" stroke-linecap="round"/>
<path d="M45.8228 48.2284C45.6513 47.628 45.8017 46.7829 45.8017 46.1586C47.8223 46.1586 47.3224 47.2517 47.3224 49.0099C47.3224 49.8654 45.9124 48.542 45.8228 48.2284Z" stroke="#312824" stroke-width="3" stroke-linecap="round"/>
<path d="M39.719 46.5388C41.0645 46.5388 41.9195 46.1138 43.056 45.3982C44.0013 44.8031 45.1777 45.0181 46.2664 45.0181C48.8749 45.0181 51.922 45.4228 54.4612 44.7224C55.3321 44.4821 56.3738 44.847 57.1224 44.1732C57.7204 43.6351 58.289 43.4974 59.1078 43.4974C60.5035 43.4974 62.5094 43.1305 63.6698 42.3569" stroke="#312824" stroke-width="3" stroke-linecap="round"/>
<path d="M57.5871 49.2C57.5871 50.2617 58.8411 50.2526 59.6147 50.9319C60.5699 51.7706 60.2483 53.3616 60.2483 54.5224" stroke="#354BBE" stroke-width="3" stroke-linecap="round"/>
</svg>
