<svg width="59" height="67" viewBox="0 0 59 67" fill="none" xmlns="http://www.w3.org/2000/svg">
<path d="M37.7711 33.2289C36.6477 32.7795 35.6136 28.975 35.2139 27.9524C33.8472 24.4562 33.5505 19.9795 34.9225 16.4609C35.7029 14.4596 37.2872 11.9407 39.0012 10.5694C40.4413 9.41731 41.7917 18.7778 41.8175 19.2609C41.9928 22.5475 41.9327 25.6756 42.5944 28.9236C43.1674 31.7365 43.3675 34.3209 43.6302 37.1457C43.7663 38.6086 45.3459 39.6557 45.3459 40.9493C45.3459 41.7485 45.7968 42.3435 45.9285 43.1343" stroke="black" stroke-width="3" stroke-linecap="round"/>
<path d="M36.0231 34.6855C35.1086 36.286 30.5367 29.5932 30.2126 29.0207C28.3107 25.6606 25.9417 22.0592 25.3894 18.1927C24.8597 14.4852 27.007 11.853 29.6947 9.66302C30.5911 8.9326 32.7167 7.03518 32.5109 5.69762C32.3115 4.40129 30.4344 3.90847 29.3386 4.12764C27.7999 4.43537 25.6428 7.19693 24.6448 8.31964C23.7987 9.27153 22.4911 9.97343 22.039 11.2168C21.5602 12.5336 21.2476 14.0293 21.1812 15.425C21.0536 18.1037 21.2409 20.6901 22.3465 23.1778C23.4966 25.7655 24.3626 28.4704 25.972 30.8496C26.8652 32.1699 27.9753 33.6286 28.1409 35.2844C28.2587 36.4626 29.9547 41.1312 27.5744 38.6186C26.5335 37.5199 25.3202 36.5197 24.3373 35.4139C23.2324 34.1708 21.7593 33.1512 20.5985 31.9178C18.0514 29.2115 17.3776 24.2773 17.3776 20.7985C17.3776 18.2898 17.3776 15.7811 17.3776 13.2723C17.3776 12.3968 16.2125 13.2379 15.921 13.4828C15.0853 14.1847 14.8387 15.2028 14.4643 16.1857C12.9031 20.2837 15.0043 24.9536 15.9857 28.9883C16.8516 32.5483 18.9426 34.8532 20.8089 37.8255C21.6231 39.1222 22.519 40.342 23.3662 41.6129C23.6496 42.038 21.9311 40.2732 21.7477 40.0267C20.7739 38.7182 20.1054 37.2219 19.1256 35.9156C17.8052 34.1551 16.418 32.4781 15.1117 30.7363C14.8799 30.4272 14.5017 29.5257 14.0273 29.8947C13.5389 30.2745 12.6973 30.9605 12.4897 31.5456C11.6902 33.7987 13.1119 36.2992 13.9463 38.2463C15.124 40.9941 16.2788 42.5422 18.7048 44.4291C22.4853 47.3695 26.1682 50.3855 29.9051 53.3958C32.2628 55.295 34.7802 56.8019 37.1885 58.6398C38.924 59.9643 40.3621 61.666 41.8498 63.2365C42.6241 64.0537 42.2367 65.2376 43.5979 64.6931" stroke="black" stroke-width="3" stroke-linecap="round"/>
<path d="M44.7632 42.5516C46.9922 44.0767 47.8672 47.7849 48.6639 50.1749C49.5608 52.8657 51.216 54.8164 53.0015 57.0051C53.7545 57.9281 54.726 58.2329 55.1866 59.3843C55.616 60.458 56.4878 61.2683 57.2906 62.0711" stroke="black" stroke-width="3" stroke-linecap="round"/>
<path d="M44.0443 6.85132C42.1031 6.85132 40.1689 6.66855 38.2363 6.66855C37.4402 6.66855 36.7438 6.30301 35.9314 6.30301C35.5755 6.30301 34.8856 6.44518 34.7231 6.12025" stroke="#3C3D30" stroke-width="3" stroke-linecap="round"/>
<path d="M26.6814 4.84087C24.7749 4.84087 22.8981 4.23143 21.0359 3.92704C18.0803 3.44391 15.0989 3.19419 12.1412 2.64767C9.13039 2.09131 6.15084 2.09936 3.1044 2.09936" stroke="#3C3D30" stroke-width="3" stroke-linecap="round"/>
<path d="M2.0078 7.76515C2.86833 8.2492 4.17156 8.18885 5.11484 8.32361C6.46581 8.5166 7.79013 8.82827 9.13572 9.04452C10.7996 9.31193 12.4317 9.57549 14.0907 9.87713C16.5047 10.316 19.1111 10.3239 21.5639 10.3239" stroke="#3C3D30" stroke-width="3" stroke-linecap="round"/>
<path d="M27.9608 12.5171C29.2006 12.5791 30.5892 13.02 31.7989 13.2888C32.686 13.4859 33.4401 13.6137 34.3576 13.6137" stroke="#3C3D30" stroke-width="3" stroke-linecap="round"/>
<path d="M41.8511 14.3448C42.5793 14.5788 43.2603 14.6751 44.024 14.7103C44.5503 14.7346 44.9929 15.0292 45.5064 15.0758C45.7155 15.0949 45.8452 15.1459 45.6486 14.9946C45.0487 14.5332 44.7673 13.8053 44.4098 13.1669C43.6285 11.7717 43.8615 10.0454 43.8615 8.49622" stroke="#3C3D30" stroke-width="3" stroke-linecap="round"/>
<path d="M1.68722 1.7207V7.68471" stroke="#3C3D30" stroke-width="3" stroke-linecap="round"/>
<path d="M31.9049 8.08231C31.9049 9.19236 32.7001 9.97702 32.7001 11.1748C32.7001 12.1889 33.1361 12.5628 33.8929 12.0583" stroke="#3C3D30" stroke-width="3" stroke-linecap="round"/>
<path d="M34.7181 9.36732C34.7181 9.53681 34.7181 10.3516 34.7181 10.2615C34.7181 9.80125 34.6932 9.65877 35.048 9.35999C35.1467 9.27682 35.5872 8.70831 35.6343 9.13277C35.6831 9.57194 35.7063 9.98888 35.8396 10.4155C36.1203 11.3137 35.8509 10.8157 35.5684 10.2176C35.3747 9.80738 35.0901 9.59542 34.8501 9.23539" stroke="#D69F13" stroke-width="3" stroke-linecap="round"/>
<path d="M37.0929 8.97152C38.0658 8.83617 39.0152 8.70765 39.9955 8.70765" stroke="#D69F13" stroke-width="3" stroke-linecap="round"/>
<path d="M41.051 8.70765C41.1351 9.12821 41.6207 9.49286 41.7913 9.90971C41.9849 10.3831 42.3281 10.9382 42.6342 11.3463" stroke="#D69F13" stroke-width="3" stroke-linecap="round"/>
<path d="M34.982 11.8741C34.5256 11.2465 34.9272 10.252 34.249 9.69716C33.659 9.21441 33.5528 8.77344 33.7946 8.04798" stroke="#D69F13" stroke-width="3" stroke-linecap="round"/>
<path d="M5.04738 3.97037C5.04738 4.87299 5.54776 5.63731 5.87936 6.4663" stroke="#2B2924" stroke-width="3" stroke-linecap="round"/>
</svg>
