<svg width="116" height="64" viewBox="0 0 116 64" fill="none" xmlns="http://www.w3.org/2000/svg">
<path d="M114.239 55.1401C111.692 53.7906 109.465 52.3955 107.429 50.3598C106.929 49.8592 106.348 49.0057 105.71 48.6575C103.471 47.4364 101.336 49.7654 99.2098 49.2593C97.4078 48.8302 95.8106 45.235 94.8422 43.8599C93.7137 42.2574 92.324 40.0768 90.5434 39.0796C89.349 38.4108 87.5579 38.7357 86.2445 38.7357C83.7293 38.7357 83.2586 37.9119 82.3755 35.5202C81.8416 34.0742 81.2392 32.5622 80.1058 31.4621C78.2109 29.6229 75.2338 30.1424 72.8321 29.6909C67.8729 28.7587 64.6161 26.515 60.3482 23.8961C56.8108 21.7254 52.8217 20.5646 48.8101 19.5972C45.5423 18.8093 41.5104 18.8501 38.4069 17.551C35.374 16.2814 31.5045 16.0862 28.1928 15.8314" stroke="#777C94" stroke-width="3" stroke-linecap="round"/>
<path d="M109.286 62.259C107.221 62.259 104.405 62.8651 102.649 61.5712C99.9736 59.5999 98.3726 57.9732 94.8422 57.9258C92.1608 57.8898 89.4764 57.9258 86.7948 57.9258C86.0243 57.9258 84.9085 58.1197 84.1467 57.857C83.2513 57.5482 82.554 56.9006 81.6018 56.6877C77.2931 55.7246 72.7447 56.0443 68.3957 55.1745C66.8769 54.8708 65.5562 54.2201 64.0796 53.7817C62.2518 53.2391 60.328 53.0963 58.4739 52.6468C56.4234 52.1497 54.5388 51.5722 52.6791 50.5661C50.2077 49.2292 48.0295 47.3618 45.4054 46.3189C40.3327 44.3028 35.187 42.4499 29.7404 42.4499" stroke="#777C94" stroke-width="3" stroke-linecap="round"/>
<path d="M73.3824 43.9975C68.0521 43.9975 63.7852 40.3925 60.0387 36.8958C57.3517 34.3879 54.6969 29.2793 58.921 26.7677C61.2345 25.3921 61.497 28.3973 59.0758 29.0891C53.6917 30.6274 48.3571 27.0783 45.4054 22.7784C43.4164 19.8808 41.4267 16.1711 40.7799 12.6675C40.3848 10.5274 43.5275 10.8792 44.8724 10.8792C47.2612 10.8792 48.5613 11.3113 50.031 13.3209C50.9877 14.6291 52.5735 17.2457 50.9939 18.6859C48.6163 20.8537 43.8084 20.4686 40.8487 19.9583C37.6523 19.4072 34.2134 17.6885 30.9785 17.6885" stroke="#777C94" stroke-width="3" stroke-linecap="round"/>
<path d="M77.5727 50.3708C71.0743 50.0754 64.0856 48.9871 59.2191 44.4345C58.0699 43.3595 57.1129 42.6024 56.4087 41.194C55.6198 39.6163 53.4747 40.7903 52.1644 41.1079C46.5286 42.4742 41.4411 44.9162 35.6174 45.6677C33.6717 45.9187 31.4516 43.801 29.968 42.6279C27.9513 41.0333 26.0903 37.7204 25.9531 35.1143C25.8708 33.5508 26.643 31.1586 24.4619 31.7877C22.4119 32.3791 20.318 32.3039 18.2102 32.3039C13.8756 32.3039 12.9395 25.9363 13.6218 22.5249C14.8725 16.2713 21.3074 23.135 21.3074 26.7692C21.3074 29.2499 20.3193 21.8793 20.275 19.399C20.2497 17.9855 19.8292 15.5683 20.3897 14.2371C20.7903 13.2855 21.375 12.0533 22.3397 11.6561C24.0684 10.9443 22.1931 5.46826 22.9707 3.91317C24.8956 0.0633714 31.53 3.12469 30.5415 7.3258C30.2342 8.63212 29.0761 10.3013 27.7885 10.8531C25.9304 11.6495 31.4546 6.31012 32.9504 7.66993C35.1707 9.68834 35.7029 14.439 35.7608 17.2196C35.8239 20.2475 39.6282 17.9993 41.8978 17.621C43.4805 17.3573 54.7554 14.3964 55.7778 16.0151C57.1974 18.2629 56.9645 22.4271 56.9249 24.9625C56.8977 26.7025 55.8925 28.2849 55.8925 29.895C55.8925 30.6833 56.9879 28.6756 57.7278 28.4038C58.6783 28.0546 59.5526 28.1137 60.3088 28.834C61.5881 30.0523 63.5734 38.8998 64.5531 38.8998C68.3167 38.8998 71.3301 34.3687 75.2785 34.3687C77.457 34.3687 77.427 39.4282 77.6874 40.9646C78.0552 43.1343 82.0443 44.4267 83.767 45.725C85.9118 47.3413 86.4727 47.698 89.0437 47.7898C91.0472 47.8614 92.1034 50.4866 93.0586 51.9194" stroke="#BEBFC7" stroke-width="3" stroke-linecap="round"/>
<path d="M71.3783 50.887C68.9997 50.7548 66.6795 49.0538 64.6105 48.0192C60.8898 46.1589 57.1096 44.3159 53.3115 42.6279C50.3507 41.312 51.2591 35.6121 47.9775 35.4298C42.7867 35.1414 37.5179 35.4011 32.3195 35.4011C31.6876 35.4011 29.0513 35.8814 29.2224 34.5981C29.5138 32.4125 30.5409 30.2029 31.0864 28.0597C31.721 25.5665 34.4561 21.403 30.0253 24.3889C27.5024 26.0892 24.2073 28.9606 21.164 29.6369C20.6366 29.7541 21.3629 28.5712 21.5368 28.0597C22.2714 25.8991 23.1264 23.879 24.0604 21.808C24.6268 20.552 14.5079 23.802 13.3924 24.0448C9.72988 24.8418 6.48378 25.8252 3.12579 27.4861C0.910472 28.5819 2.47659 26.1842 3.01108 25.3066C6.38657 19.7642 10.7292 14.4883 15.113 9.70604C15.6553 9.11446 15.6538 11.2555 15.6292 12.0576C15.5479 14.7144 14.6482 17.1868 14.0233 19.7432C13.7312 20.9378 12.8209 24.4984 13.2776 23.3566C14.3836 20.5916 16.3474 18.0905 18.0381 15.671C18.4994 15.0109 20.74 10.9113 22.1103 11.0826C23.2949 11.2306 20.8838 16.3743 20.7912 16.5887C19.4955 19.586 18.1289 22.6371 16.3175 25.364C15.8456 26.0743 12.3779 29.6018 12.8762 30.698C13.5146 32.1027 27.6978 11.7874 24.3472 26.6258C24.2944 26.8597 22.4479 34.9673 22.942 34.8849C23.785 34.7444 27.9226 28.9156 28.3047 28.5185C32.036 24.6409 36.0018 20.8117 40.5787 17.9365C42.0287 17.0256 44.0299 15.5358 43.6758 18.1659C43.255 21.2925 42.5433 24.3777 42.0125 27.4861C41.9634 27.7742 41.2833 35.5769 41.5824 35.4872C43.0664 35.042 52.4297 26.1981 52.996 27.142C54.9033 30.3207 52.1901 35.5646 53.3975 38.9858C53.4561 39.1519 62.7202 29.9806 63.5781 29.2068C64.5769 28.3057 65.4899 27.6174 66.5605 26.8552C66.7769 26.7012 67.1216 26.2206 67.2488 26.4537C67.702 27.2846 67.2488 30.1141 67.2488 30.9274C67.2488 34.9655 66.2889 40.4212 68.1665 44.1764C68.7136 45.2706 72.1722 39.711 72.9843 39.1292C74.7561 37.8598 75.1892 44.445 75.7373 45.4956C77.0064 47.928 83.141 38.7912 84.2832 37.9821C84.3132 37.9609 84.7822 46.2301 84.9142 47.3883C85.0497 48.5783 85.2293 50.3276 86.348 50.887" stroke="#BEBFC7" stroke-width="3" stroke-linecap="round"/>
</svg>
