<svg width="264" height="223" viewBox="0 0 264 223" fill="none" xmlns="http://www.w3.org/2000/svg">
<path d="M91.1696 16.142C76.0038 19.3348 57.735 29.4852 45.8049 39.2223C30.883 51.4012 28.4938 71.7955 25.9081 89.6607C19.8304 131.652 47.5884 159.794 83.8078 176.51C130.917 198.253 187.435 209.563 232.835 178.5C238.184 174.84 242.141 171.971 244.176 165.866C244.731 164.2 228.308 164.798 226.269 164.771C196.619 164.386 168.416 145.927 144.195 130.549C117.052 113.315 90.3007 84.964 75.8491 56.3336C66.8848 38.5741 67.5702 23.679 89.2794 19.027C98.0739 17.1425 116.24 17.9327 116.24 17.9327" stroke="#5163A3" stroke-width="3" stroke-linecap="round"/>
<path d="M78.0971 19.9176C68.7232 21.2567 61.5178 29.757 53.7544 34.5472C41.9921 41.8047 34.5057 51.5196 28.2125 63.6865C21.3631 76.9288 20.8679 93.3958 27.3731 107.335C31.7174 116.645 34.2511 126.19 39.8443 134.916C45.2187 143.3 53.0959 151.637 60.5895 158.179C69.3435 165.822 81.827 174.116 93.1464 176.946C98.4331 178.268 103.344 180.449 108.675 181.803C116.635 183.824 125.061 183.917 133.138 185.16C145.108 187.002 157.462 188.278 169.832 188.278C184.044 188.278 198.893 189.674 213.001 188.038C220.001 187.227 225.994 184.3 232.487 181.803C237.651 179.817 243.795 179.547 246.997 174.128C250.587 168.053 254.811 165.14 257.01 158.299C258.552 153.502 256.198 154.641 251.854 156.98C236.254 165.38 220.078 159.09 203.888 155.301C180.575 149.845 157.094 142.295 135.896 131.139C120.619 123.098 103.95 114.44 92.7267 101.1C85.3743 92.3602 81.1718 84.6455 78.217 73.4595C76.8211 68.1751 76.4249 63.0742 73.7802 58.1704C71.1362 53.268 70.0639 49.8277 70.7823 44.1404C72.3634 31.6232 77.8509 20.4038 90.1485 16.6199C99.0661 13.876 109.919 10.2045 119.348 10.2045C126.272 10.2045 105.912 13.623 99.0822 14.7612C92.6144 15.8392 85.1365 19.487 79.1763 22.136C61.3283 30.0685 47.1471 45.0187 31.6901 56.6115" stroke="#1B317D" stroke-width="3" stroke-linecap="round"/>
<path d="M118.029 12.3629C114.394 19.8737 108.987 25.6336 102.919 31.3095C99.0472 34.9318 94.8138 37.2899 93.8059 42.7613C92.303 50.9198 92.305 60.8075 96.2042 68.2432C102.536 80.3182 114.086 90.164 122.406 100.86C127.559 107.486 137.26 112.518 144.41 116.689C155.086 122.917 166.637 129.321 178.706 132.398C194.298 136.372 209.371 145.426 225.532 147.327C236.287 148.592 247.386 149.217 258.089 147.027C267.999 145 256.067 160.704 254.492 163.036C244.111 178.399 229.809 189.546 212.522 195.833C202.531 199.466 191.198 197.991 180.744 197.991C167.733 197.991 154.723 197.991 141.712 197.991C132.234 197.991 124.529 194.472 115.391 192.595C104.858 190.432 95.3759 186.195 86.1913 180.723C70.2069 171.201 51.4242 163.892 37.326 151.584C21.143 137.456 20.8977 114.225 20.8977 94.4446C20.8977 82.0439 27.8999 77.2326 34.0883 67.4038C41.7005 55.314 49.7572 43.8984 62.3882 36.5857C69.0627 32.7215 74.946 29.9113 80.7352 24.894C84.7091 21.45 89.7242 18.1253 94.3455 15.6606C101.107 12.0546 108.717 7.20171 116.47 6.96678C120.502 6.84457 123.906 5.88754 128.281 5.88754C133.732 5.88754 124.209 11.512 122.945 12.3629C111.107 20.3311 98.1342 25.3952 86.7309 33.9476" stroke="#131E43" stroke-width="3" stroke-linecap="round"/>
<path d="M109.395 23.1552C92.2748 26.0086 78.0303 33.6851 64.4868 44.2603C54.5293 52.0353 43.1807 59.1693 34.568 68.483C24.4653 79.4081 18.7729 99.227 25.0947 113.451C31.9055 128.775 41.3706 147.696 55.0734 158.059C82.2445 178.609 118.703 182.564 151.245 188.038C171.107 191.379 188.667 186.767 208.085 183.481C224.527 180.699 241.333 176.217 254.612 165.854C259.383 162.13 266.021 157.195 255.931 156.98C239.228 156.625 225.33 151.712 210.063 145.169C195.397 138.883 182.1 130.396 167.673 123.584C153.735 117.002 140.336 111.385 127.322 103.078C111.211 92.7948 95.7336 80.0224 95.3648 59.3695C95.2782 54.5207 93.6933 45.5638 95.8445 41.0226C100.34 31.5319 112.072 27.0464 121.266 23.2152C126.114 21.1952 131.16 19.7458 136.016 17.7591C143.65 14.6361 135.102 15.4375 130.8 14.9411C113.757 12.9746 97.4817 12.3629 80.2556 12.3629" stroke="#B3B8CB" stroke-width="3" stroke-linecap="round"/>
<path d="M77.0178 22.076L75.9386 20.9968" stroke="#B3B8CB" stroke-width="3" stroke-linecap="round"/>
<path d="M43.5616 35.0268C62.5821 27.664 78.4612 14.5188 98.003 9.06526C110.552 5.56312 124.593 1.57059 137.755 1.57059C140.328 1.57059 136.973 4.89598 135.836 6.48709C131.177 13.0097 124.998 17.5206 119.947 23.8747C112.055 33.8044 105.472 44.4584 102.5 57.0312C100.124 67.0805 101.202 76.6116 101.84 86.83" stroke="#B3B8CB" stroke-width="3" stroke-linecap="round"/>
<path d="M123.425 10.2045C108.866 26.5108 93.7139 48.9579 92.4269 71.4809C91.7136 83.9634 94.8365 94.9073 102.68 104.697C109.184 112.817 113.495 115.418 123.425 115.969" stroke="#62646B" stroke-width="3" stroke-linecap="round"/>
<path d="M133.138 10.2045C123.534 20.8198 110.79 29.5658 103.399 41.9819C96.2344 54.0187 94.6169 68.0898 94.3456 81.7936C94.087 94.8509 94.1021 107.799 99.9216 119.807C105.363 131.033 113.375 141.501 123.065 149.366C133.108 157.517 145.306 162.976 157.481 167.113C171.873 172.004 188.853 177.783 204.247 175.687C223.128 173.117 237.299 157.104 251.854 146.188" stroke="#62646B" stroke-width="3" stroke-linecap="round"/>
<path d="M46.366 84.3142C44.5012 86.3388 40.5647 91.6863 42.3002 94.868C43.5278 97.1187 51.7528 90.0389 52.854 88.9856C59.6659 82.4699 48.0768 83.3342 47.4041 85.3523" stroke="#050505" stroke-width="3" stroke-linecap="round"/>
<path d="M72.3181 93.1379C71.3481 94.6369 67.947 101.905 70.7898 102.971C73.2107 103.879 77.1446 103.908 78.3159 101.039C79.0486 99.2437 78.6661 96.7566 79.0656 94.8392C79.3058 93.6862 80.1136 92.0383 79.0079 91.0906C75.8707 88.4016 71.9943 92.5921 70.2419 94.695" stroke="#050505" stroke-width="3" stroke-linecap="round"/>
<path d="M58.823 135.18C69.5162 134.769 80.1216 133.536 90.0519 129.327C90.5231 129.127 95.8089 125.511 93.0797 126.876" stroke="#050505" stroke-width="3" stroke-linecap="round"/>
<path d="M61.4182 136.218C62.835 137.718 64.105 142.217 66.2338 142.447C72.8581 143.163 79.329 142.447 85.9285 142.447C90.3855 142.447 92.2449 138.781 94.3484 135.44C95.0956 134.253 95.3997 132.848 95.9056 131.547C96.6998 129.504 95.8128 129.375 94.1178 128.952" stroke="#050505" stroke-width="3" stroke-linecap="round"/>
<path d="M86.8512 131.547C86.8512 135.761 92.4227 135.873 90.4845 131.028" stroke="#050505" stroke-width="3" stroke-linecap="round"/>
<path d="M45.847 88.9856C45.9246 90.3831 46.377 90.7591 47.4041 91.5808" stroke="#050505" stroke-width="3" stroke-linecap="round"/>
<path d="M71.799 97.2902C72.7601 96.3291 75.1952 96.7712 76.4704 96.7712" stroke="#050505" stroke-width="3" stroke-linecap="round"/>
<path d="M72.3181 92.6188C73.3554 94.6417 74.3458 96.9208 76.1244 98.4148C76.8405 99.0164 77.2235 99.0307 77.5085 99.8854" stroke="#050505" stroke-width="3" stroke-linecap="round"/>
<path d="M74.3942 94.176C73.9715 96.7123 75.7092 98.64 76.4704 100.923" stroke="#A08523" stroke-width="3" stroke-linecap="round"/>
<path d="M73.8752 100.923C75.2022 99.0861 79.9899 97.8092 75.4323 97.8092" stroke="#A08523" stroke-width="3" stroke-linecap="round"/>
<path d="M41.1756 89.5046C43.6951 88.9447 46.7407 88.274 48.4422 90.5427" stroke="#A08523" stroke-width="3" stroke-linecap="round"/>
<path d="M45.847 91.0617C45.5124 91.3485 47.0791 88.1868 47.4041 87.4284" stroke="#A08523" stroke-width="3" stroke-linecap="round"/>
<path d="M176.037 205.471C178.405 207.225 180.003 209.22 181.955 211.389" stroke="#C7C3B6" stroke-width="3" stroke-linecap="round"/>
<path d="M208.586 205.471C211.886 207.748 214.852 209.79 218.449 211.389" stroke="#C7C3B6" stroke-width="3" stroke-linecap="round"/>
<path d="M250.997 187.718C251.996 188.467 254.509 189.473 254.942 189.69" stroke="#C7C3B6" stroke-width="3" stroke-linecap="round"/>
<path d="M104.037 214.348C103.506 218.806 102.069 218.584 99.105 221.252" stroke="#C7C3B6" stroke-width="3" stroke-linecap="round"/>
<path d="M81.3513 190.676C74.2917 191.098 68.1394 193.002 61.6251 195.608" stroke="#C7C3B6" stroke-width="3" stroke-linecap="round"/>
<path d="M142.503 211.389C144.051 212.55 145.214 214.101 146.448 215.334" stroke="#C7C3B6" stroke-width="3" stroke-linecap="round"/>
<path d="M220.421 134.457C224.146 132.463 227.976 130.548 231.161 127.717C234.917 124.379 231.966 125.94 232.257 123.607" stroke="#C7C3B6" stroke-width="3" stroke-linecap="round"/>
<path d="M171.106 118.676C172.093 116.253 173.474 114.785 175.051 112.758" stroke="#C7C3B6" stroke-width="3" stroke-linecap="round"/>
<path d="M146.448 103.881C155.187 99.3126 162.151 92.76 169.133 86.1273" stroke="#C7C3B6" stroke-width="3" stroke-linecap="round"/>
<path d="M126.722 65.4148C132.662 63.1671 138.564 60.8328 144.475 58.5106" stroke="#C7C3B6" stroke-width="3" stroke-linecap="round"/>
<path d="M143.489 31.8801H144.475" stroke="#C7C3B6" stroke-width="3" stroke-linecap="round"/>
<path d="M106.995 5.24971C104.698 4.12463 102.457 3.17799 100.091 2.29077" stroke="#C7C3B6" stroke-width="3" stroke-linecap="round"/>
<path d="M23.1589 16.0992H66.5566" stroke="#C7C3B6" stroke-width="3" stroke-linecap="round"/>
<path d="M34.0083 38.7843C33.5384 40.5073 31.958 42.2015 31.0494 43.7159" stroke="#C7C3B6" stroke-width="3" stroke-linecap="round"/>
<path d="M16.2547 64.4285C10.8834 65.7713 7.17189 68.9699 2.44629 71.3327" stroke="#C7C3B6" stroke-width="3" stroke-linecap="round"/>
<path d="M9.35052 99.9357C8.6596 103.39 6.85257 106.615 5.40527 109.799" stroke="#C7C3B6" stroke-width="3" stroke-linecap="round"/>
<path d="M23.1589 141.361C22.2023 147.738 19.6437 153.241 17.241 159.115" stroke="#C7C3B6" stroke-width="3" stroke-linecap="round"/>
<path d="M42.8851 189.69C43.6393 192.33 43.8714 194.849 43.8714 197.581" stroke="#C7C3B6" stroke-width="3" stroke-linecap="round"/>
<path d="M62.9593 136.801C65.4161 136.801 67.8728 136.801 70.3296 136.801C72.7769 136.801 74.822 135.894 77.2166 135.729C80.3219 135.515 83.0243 133.754 85.6743 132.315C87.9651 131.072 90.4053 128.693 92.9993 128.117C93.567 127.991 94.3804 130.027 94.6153 130.563C95.1571 131.802 95.269 133.608 95.008 134.913C94.3576 138.165 90.7961 140.079 87.8189 140.547C86.1214 140.813 84.56 141.659 82.8047 141.906C80.6562 142.208 78.4999 142.503 76.3406 142.721C74.8911 142.868 72.7245 143.078 71.3264 142.601C69.7175 142.051 68.2507 141.097 66.7653 140.335C65.5256 139.699 64.0845 139.671 62.9895 138.795C62.3241 138.262 61.5255 137.443 60.7845 137.073" stroke="#7B3006" stroke-width="3" stroke-linecap="round"/>
<path d="M87.6981 131.364C87.7704 131.762 88.2081 132.828 88.6345 132.95C88.8528 133.012 88.7855 130.945 88.7855 130.715C88.7855 129.731 88.3559 129.841 88.8006 130.805C89.0713 131.392 89.3292 131.673 89.3292 132.315C89.3292 132.831 89.3794 131.383 89.2688 131.213C89.0439 130.867 87.0345 131.312 87.0033 131.032C86.9263 130.338 89.7061 129.461 87.4262 129.461" stroke="#332F2D" stroke-width="3" stroke-linecap="round"/>
<path d="M63.2312 138.976C64.0807 140.628 65.6296 142.48 65.6779 144.413C65.7083 145.63 65.1508 146.414 64.9227 147.554C64.5712 149.312 64.5905 151.06 64.5905 152.84" stroke="#2420DC" stroke-width="3" stroke-linecap="round"/>
</svg>
