<svg width="595" height="438" viewBox="0 0 595 438" fill="none" xmlns="http://www.w3.org/2000/svg">
<path d="M442.714 183.037C442.714 163.063 424.962 148.429 409.833 140.596C380.518 125.419 325.18 109.185 299.196 141.046C294.794 146.444 288.995 153.623 286.848 160.467C284.119 169.167 285.225 179.413 285.225 188.436C285.225 204.228 283.284 221.714 286.707 237.175C295.835 278.399 335.468 285.615 370.32 285.615C397.844 285.615 419.142 282.063 435.023 256.446C442.471 244.432 452.875 231.008 452.875 215.955C452.875 206.65 455.029 194.593 449.699 186.411C447.096 182.415 444.568 178.023 442.714 173.589C440.754 168.902 436.322 165.866 433.823 161.442" stroke="#FCF442" stroke-width="3" stroke-linecap="round"/>
<path d="M419.853 146.595C425.582 144.238 430.685 140.812 435.94 137.447C455.419 124.974 475.074 113.307 495.775 103.254C506.678 97.9595 519.379 93.5892 529.079 85.8582" stroke="#FCF442" stroke-width="3" stroke-linecap="round"/>
<path d="M471.926 207.332C479.919 210.163 488.748 209.729 497.045 209.881C516.701 210.241 536.374 210.031 556.032 210.031C565.389 210.031 580.744 207.503 590.183 210.556C593.568 211.651 586.193 216.821 583.692 219.479" stroke="#FCF442" stroke-width="3" stroke-linecap="round"/>
<path d="M419.853 272.118C419.853 289.886 420.176 307.729 422.463 325.356C423.47 333.108 426.203 341.193 426.203 349.051" stroke="#FCF442" stroke-width="3" stroke-linecap="round"/>
<path d="M360.159 280.216C355.089 311.649 346.241 342.392 330.454 369.746C327.905 374.162 326.901 377.395 322.057 377.395" stroke="#FCF442" stroke-width="3" stroke-linecap="round"/>
<path d="M300.466 264.019C292.365 265.963 285.909 270.13 278.663 274.517C264.402 283.152 250.222 291.948 235.975 300.611C229.236 304.709 217.635 315.308 209.021 315.308" stroke="#FCF442" stroke-width="3" stroke-linecap="round"/>
<path d="M278.875 197.884C249.026 193.352 218.99 180.51 189.97 172.539C127.785 155.459 65.5234 141.499 2 131.748" stroke="#FCF442" stroke-width="3" stroke-linecap="round"/>
<path d="M341.108 123.65C344.113 86.5314 342.814 48.8654 343.649 11.6243" stroke="#FCF442" stroke-width="3" stroke-linecap="round"/>
<path d="M386.831 129.049C400.714 115.232 415.591 102.528 430.437 89.9073C434.522 86.4343 441.007 82.5051 443.984 77.7599" stroke="#FCF442" stroke-width="3" stroke-linecap="round"/>
<path d="M313.167 135.797C324.592 132.328 334.93 129.476 347.035 129.124C364.736 128.608 384.597 126.7 401.931 130.998C419.96 135.469 431.522 149.182 435.587 168.865C438.043 180.751 441.429 191.903 444.548 203.658C446.875 212.422 447.542 221.448 450.264 230.127C453.586 240.719 458.478 258.858 446.312 265.969C438.927 270.286 427.493 268.54 419.288 269.718C410.358 271.001 401.01 271.617 392.193 273.467C378.102 276.425 364.945 277.799 350.563 277.516C331.454 277.14 313.281 258.925 301.454 244.524C296.859 238.928 292.941 235.943 290.588 228.627C287.626 219.418 286.495 211.604 286.495 201.933" stroke="url(#paint0_linear_4_225)" stroke-width="3" stroke-linecap="round"/>
<path d="M320.787 131.748C306.196 138.726 290.053 155.465 282.262 170.14C274.401 184.944 267.317 212.007 273.371 228.552C277.354 239.435 285.57 247.27 294.821 253.072C312.268 264.014 335.088 270.121 354.797 273.917C375.436 277.893 393.932 266.279 405.459 248.498C409.246 242.655 414.915 238.737 418.724 232.901C422.415 227.245 423.538 220.778 424.227 214.08C425.059 206 424.933 197.898 424.933 189.786" stroke="url(#paint1_linear_4_225)" stroke-width="3" stroke-linecap="round"/>
<path d="M432.553 162.791C432.553 182.237 432.553 201.683 432.553 221.129C432.553 231.006 434.062 243.241 430.154 252.622C422.332 271.403 394.851 272.058 378.646 275.117C362.745 278.119 342.09 280.487 326.15 276.317C314.435 273.252 307.11 264.175 296.656 258.621" stroke="url(#paint2_linear_4_225)" stroke-width="3" stroke-linecap="round"/>
<path d="M292.846 254.571C303.985 266.409 315.101 279.261 331.089 282.915C347.083 286.571 366.664 288.284 381.821 280.666C398.654 272.205 410.878 263.551 424.086 249.323C435.698 236.814 445.775 227.485 443.137 208.981C440.201 188.383 432.537 165.3 418.3 150.344C403.227 134.509 380.401 131.519 360.089 131.973C342.826 132.359 325.251 143.35 314.366 157.318C305.371 168.861 304.276 184.885 304.276 199.234" stroke="url(#paint3_linear_4_225)" stroke-width="3" stroke-linecap="round"/>
<path d="M310.627 215.43C314.472 226.1 318.75 237 324.598 246.623C334.543 262.991 348.632 268.416 366.228 270.468C383.199 272.447 402.553 273.264 418.371 265.219C430.63 258.984 437.08 245.979 443.984 234.326" stroke="url(#paint4_linear_4_225)" stroke-width="3" stroke-linecap="round"/>
<path d="M433.823 232.976C421.89 258.34 418.289 291.415 386.266 294.463C369.3 296.077 346.542 295.251 330.948 286.964" stroke="url(#paint5_linear_4_225)" stroke-width="3" stroke-linecap="round"/>
<path d="M287.335 225.092C285.777 215.49 283.539 206.017 283.89 196.215C284.1 190.346 287.235 185.925 289.784 180.922C292.409 175.769 294.837 170.933 298.893 166.849C310.814 154.848 325.971 146.354 341.299 140.331C346.342 138.349 352.13 137.962 357.45 137.565C366.846 136.865 376.682 136.745 386.078 137.565C396.107 138.441 406.139 142.733 414.935 147.815C426.738 154.634 440.501 165.631 445.094 179.458C448.081 188.453 448.08 196.796 446.854 206.098C445.888 213.435 445.677 222.207 442.185 228.834C438.828 235.205 434.523 240.949 432.005 247.787C430.433 252.056 427.888 255.305 425.537 259.094C423.635 262.159 422.212 265.889 419.872 268.612C414.367 275.019 407.176 275.607 399.435 275.607C383.47 275.607 368.721 273.313 353.278 269.018C341.949 265.868 330.766 262.17 319.483 258.85C311.573 256.522 303.388 255.381 296.979 249.252C291.101 243.63 285.496 239.784 282.512 231.681C279.915 224.629 278.485 215.582 279.91 208.01C280.217 206.379 281.635 205.595 282.665 207.196C284.898 210.668 284.676 215.414 285.268 219.398C286.473 227.508 289.554 234.375 293.688 241.198C297.784 247.96 303.122 253.524 309.073 258.443C315.626 263.859 321.987 270.429 329.587 274.224C337.893 278.372 349.146 277.071 357.986 277.071C366.425 277.071 375.047 277.584 383.245 275.038C391.756 272.395 400.474 268.747 408.505 264.788C409.564 264.267 415.794 260.509 410.955 263.08C404.302 266.615 397.952 270.205 390.976 273.045C374.59 279.718 358.828 282.861 341.49 277.804C341.109 277.692 331.072 273.631 330.736 274.346C329.556 276.853 360.727 284.697 361.736 284.921C373.726 287.579 387.186 290.899 399.55 288.948C410.118 287.28 419.921 282.498 428.484 275.811C435.958 269.973 442.554 264.059 443.984 253.929C444.492 250.326 444.459 246.704 444.367 243.069C443.955 226.87 440.249 209.973 435.449 194.669C430.699 179.526 421.587 165.877 411.337 154.363C406.158 148.545 399.31 145.56 392.048 147.489" stroke="#EF9542" stroke-width="3" stroke-linecap="round"/>
<path d="M389.981 280C392.097 283.597 409.962 275.598 413.289 274.184C419.257 271.647 424.004 268.529 428.713 263.894C441.82 250.992 441.135 229.528 442.491 211.914C443.013 205.136 443.027 198.417 443.027 191.619C443.027 181.522 439.927 173.031 437.057 163.514C435.213 157.403 432.594 150.93 427.795 146.757C421.924 141.653 411.972 139.402 404.908 136.915C389.478 131.481 375.103 132.115 359.057 132.115C347.019 132.115 334.497 130.868 322.775 134.312C317.725 135.795 310.948 136.441 306.547 139.558C301.214 143.337 297.398 148.15 294.836 154.485C291.061 163.82 291.468 174.137 291.468 184.054C291.468 189.491 290.809 195.151 292.846 200.201" stroke="#EF9542" stroke-width="3" stroke-linecap="round"/>
<path d="M284.257 173.126C253.524 155.784 218.192 144.587 185.483 132.761C147.699 119.101 109.708 107.5 71.249 96.454" stroke="#EF9542" stroke-width="3" stroke-linecap="round"/>
<path d="M257.631 226.978C237.111 234.324 216.3 240.706 195.79 247.972" stroke="#EF9542" stroke-width="3" stroke-linecap="round"/>
<path d="M323.766 280.831C321.741 291.592 311.868 300.864 305.729 309.127" stroke="#EF9542" stroke-width="3" stroke-linecap="round"/>
<path d="M391.62 295.435C393.985 342.198 392.026 389.535 397.632 436" stroke="#EF9542" stroke-width="3" stroke-linecap="round"/>
<path d="M441.436 261.663C442.858 261.13 443.716 261.757 444.871 262.576" stroke="#EF9542" stroke-width="3" stroke-linecap="round"/>
<path d="M450.025 265.314C456.045 268.582 462.111 270.738 468.539 272.971C473.495 274.693 476.709 276.915 480.945 279.006" stroke="#EF9542" stroke-width="3" stroke-linecap="round"/>
<path d="M443.154 191.381C485.27 172.425 530.005 159.394 573.707 145.337C578.479 143.802 583.264 142.309 588.022 140.723C589.772 140.139 594.768 139.414 593.128 138.542C592.368 138.139 590.831 138.441 590.026 138.441" stroke="#EF9542" stroke-width="3" stroke-linecap="round"/>
<path d="M408.798 137.528C416.431 130.735 424.424 124.868 432.847 119.273" stroke="#EF9542" stroke-width="3" stroke-linecap="round"/>
<path d="M341.803 132.964C360.98 90.5541 374.744 45.5182 392.478 2.4399" stroke="#EF9542" stroke-width="3" stroke-linecap="round"/>
<path d="M300.576 142.092C270.719 98.6211 233.779 60.5836 195.79 25.2589" stroke="#EF4261" stroke-width="3" stroke-linecap="round"/>
<path d="M441.436 166.736C455.826 159.649 471.995 156.079 487.244 151.828C504.707 146.96 522.023 141.913 539.351 136.615" stroke="#EF4261" stroke-width="3" stroke-linecap="round"/>
<path d="M447.448 238.844C482.7 250.312 518.306 259.957 553.952 269.878" stroke="#EF4261" stroke-width="3" stroke-linecap="round"/>
<path d="M340.085 185.904C337.837 186.456 334.169 188.938 334.169 191.837C334.169 193.948 339.678 193.277 340.944 193.206C342.758 193.105 341.729 188.405 340.515 187.831C339.522 187.362 337.729 187.73 336.65 187.73" stroke="#494B3A" stroke-width="3" stroke-linecap="round"/>
<path d="M388.184 190.468C386.056 190.468 379.249 189.248 378.068 191.381C376.59 194.051 384.593 194.191 385.607 194.575C387.37 195.245 389.838 194.389 388.947 191.786C387.396 187.253 375.47 188.643 371.865 188.643" stroke="#494B3A" stroke-width="3" stroke-linecap="round"/>
<path d="M350.392 231.542H379.595" stroke="#494B3A" stroke-width="3" stroke-linecap="round"/>
<path d="M376.159 180.428C377.152 178.319 385.87 179.515 388.184 179.515" stroke="#494B3A" stroke-width="3" stroke-linecap="round"/>
<path d="M328.061 179.515H346.957" stroke="#494B3A" stroke-width="3" stroke-linecap="round"/>
<path d="M372.032 190.023C373.179 191.85 374.18 194.079 376.37 194.545C378.294 194.954 380.821 195.038 382.772 194.742C384.19 194.527 385.819 193.974 387.275 193.974" stroke="#494B3A" stroke-width="3" stroke-linecap="round"/>
<path d="M288.954 169.357C284.852 183.226 284.667 195.78 285.062 210.03C285.219 215.736 287.463 221.136 288.81 226.574C290.511 233.447 292.495 239.138 296.738 244.613C298.484 246.866 299.296 249.491 301.423 251.391C304.191 253.865 306.628 256.46 309.676 258.591C315.25 262.489 321.527 265.07 327.515 268.089C334.914 271.821 342.566 276.778 350.507 278.966C355.341 280.298 360.409 282.521 365.391 283.026C371.717 283.666 378.591 283.446 384.924 283.026C394.084 282.417 406.799 279.083 414.115 272.953C423.166 265.369 430.276 252.921 435.557 242.276C443.788 225.688 450.229 207.257 443.666 188.659C442.303 184.797 441.315 181.069 439.774 177.247C438.343 173.7 436.737 170.802 435.053 167.289C433.594 164.246 430.532 160.258 430.368 156.949C430.25 154.579 427.472 152.905 426.476 151.051C424.632 147.621 420.706 142.755 417.682 140.71C415.359 139.139 412.659 138.731 410.006 138.298C408.904 138.117 408.421 137.009 407.159 136.957C405.824 136.902 404.833 137 403.627 136.268C400.671 134.473 396.023 134.8 392.744 134.046C391.333 133.722 389.917 133.061 388.491 132.859C386.868 132.629 384.816 133.349 383.338 132.476C381.372 131.316 377.807 131.169 375.554 130.753C370.216 129.766 365.077 128.113 359.661 127.459C345.035 125.693 331.718 126.245 318.541 133.472C310.949 137.636 301.579 140.393 296.45 148.14C292.83 153.607 291.391 159.313 289.602 165.489C288.514 169.25 289.686 175.268 285.062 176.251" stroke="#5163A3" stroke-width="3" stroke-linecap="round"/>
<path d="M335.659 134.2C327.135 136.464 319.154 143.172 313.64 150.4C308.896 156.617 303.125 162.283 299.044 169.012C290.959 182.346 289.62 199.647 291.044 215.085C291.629 221.426 294.578 229.638 297.495 235.191C300.204 240.35 303.776 246.064 307.802 250.128C312.941 255.316 320.27 257.877 326.433 261.349C332.968 265.029 339.45 268.247 346.831 269.506C353.039 270.565 359.597 270.004 365.859 270.004C375.368 270.004 384.895 270.19 394.402 269.966C398.937 269.859 403.392 269.371 407.628 267.553C414.555 264.58 420.515 260.062 425.322 253.996C431.829 245.785 432.512 237.252 433.611 226.957C434.145 221.96 434.024 216.984 434.368 211.983C434.762 206.257 436.206 200.747 436.206 194.978C436.206 185.294 436.47 176.439 432.674 167.404C421.557 140.941 394.075 134.099 369.391 132.668C357.293 131.966 345.341 131.251 333.209 131.442C329.01 131.508 317.52 131.403 314.901 135.578" stroke="#5163A3" stroke-width="3" stroke-linecap="round"/>
<defs>
<linearGradient id="paint0_linear_4_225" x1="370.298" y1="128.256" x2="370.298" y2="277.553" gradientUnits="userSpaceOnUse">
<stop stop-color="#EF4257"/>
<stop offset="1" stop-color="#F1495E" stop-opacity="0"/>
</linearGradient>
<linearGradient id="paint1_linear_4_225" x1="348.018" y1="131.748" x2="348.018" y2="274.698" gradientUnits="userSpaceOnUse">
<stop stop-color="#EF4257"/>
<stop offset="1" stop-color="#F1495E" stop-opacity="0"/>
</linearGradient>
<linearGradient id="paint2_linear_4_225" x1="364.748" y1="162.791" x2="364.748" y2="278.563" gradientUnits="userSpaceOnUse">
<stop stop-color="#EF4257"/>
<stop offset="1" stop-color="#F1495E" stop-opacity="0"/>
</linearGradient>
<linearGradient id="paint3_linear_4_225" x1="368.203" y1="131.931" x2="368.203" y2="286.021" gradientUnits="userSpaceOnUse">
<stop stop-color="#EF4257"/>
<stop offset="1" stop-color="#F1495E" stop-opacity="0"/>
</linearGradient>
<linearGradient id="paint4_linear_4_225" x1="377.305" y1="215.43" x2="377.305" y2="271.798" gradientUnits="userSpaceOnUse">
<stop stop-color="#EF4257"/>
<stop offset="1" stop-color="#F1495E" stop-opacity="0"/>
</linearGradient>
<linearGradient id="paint5_linear_4_225" x1="382.386" y1="232.976" x2="382.386" y2="295.139" gradientUnits="userSpaceOnUse">
<stop stop-color="#EF4257"/>
<stop offset="1" stop-color="#F1495E" stop-opacity="0"/>
</linearGradient>
</defs>
</svg>
